<mxfile host="app.diagrams.net" modified="2023-09-21T06:14:46.645Z" agent="Mozilla/5.0 (Windows NT 10.0; Win64; x64) AppleWebKit/537.36 (KHTML, like Gecko) Chrome/117.0.0.0 Safari/537.36 Edg/117.0.2045.36" etag="EsQNTOftHPr0GP33oTgG" version="21.8.0" type="device">
  <diagram name="Page-1" id="OJXPRjX-p5ZHbK16x4Me">
    <mxGraphModel dx="1386" dy="785" grid="1" gridSize="10" guides="1" tooltips="1" connect="1" arrows="1" fold="1" page="1" pageScale="1" pageWidth="827" pageHeight="1169" math="0" shadow="0">
      <root>
        <mxCell id="0" />
        <mxCell id="1" parent="0" />
        <mxCell id="iCdLz70H8Qc2eGAxDio2-1" value="Data Science" style="rounded=0;whiteSpace=wrap;html=1;" parent="1" vertex="1">
          <mxGeometry x="320" y="20" width="120" height="30" as="geometry" />
        </mxCell>
        <mxCell id="iCdLz70H8Qc2eGAxDio2-2" value="Data Analyst" style="rounded=0;whiteSpace=wrap;html=1;" parent="1" vertex="1">
          <mxGeometry x="160" y="80" width="120" height="30" as="geometry" />
        </mxCell>
        <mxCell id="iCdLz70H8Qc2eGAxDio2-3" value="ML Operator" style="rounded=0;whiteSpace=wrap;html=1;" parent="1" vertex="1">
          <mxGeometry x="560" y="80" width="120" height="30" as="geometry" />
        </mxCell>
        <mxCell id="iCdLz70H8Qc2eGAxDio2-4" value="&lt;ul&gt;&lt;li&gt;How much revenue genetaed in last FY&lt;/li&gt;&lt;li&gt;Which type of oil sold more&amp;nbsp;&lt;/li&gt;&lt;/ul&gt;" style="text;html=1;strokeColor=none;fillColor=none;align=left;verticalAlign=middle;whiteSpace=wrap;rounded=0;" parent="1" vertex="1">
          <mxGeometry x="60" y="220" width="290" height="30" as="geometry" />
        </mxCell>
        <mxCell id="iCdLz70H8Qc2eGAxDio2-5" value="&lt;ul&gt;&lt;li&gt;If we continue doing the business in same way what would be the revenue growth in next years.&lt;/li&gt;&lt;li&gt;&lt;br&gt;&lt;/li&gt;&lt;/ul&gt;" style="text;html=1;strokeColor=none;fillColor=none;align=left;verticalAlign=middle;whiteSpace=wrap;rounded=0;" parent="1" vertex="1">
          <mxGeometry x="490" y="230" width="290" height="30" as="geometry" />
        </mxCell>
        <mxCell id="iCdLz70H8Qc2eGAxDio2-6" value="Amazon EMR" style="sketch=0;outlineConnect=0;fontColor=#232F3E;gradientColor=none;strokeColor=#ffffff;fillColor=#232F3E;dashed=0;verticalLabelPosition=middle;verticalAlign=bottom;align=center;html=1;whiteSpace=wrap;fontSize=10;fontStyle=1;spacing=3;shape=mxgraph.aws4.productIcon;prIcon=mxgraph.aws4.emr;" parent="1" vertex="1">
          <mxGeometry x="90" y="115" width="60" height="90" as="geometry" />
        </mxCell>
        <mxCell id="iCdLz70H8Qc2eGAxDio2-7" value="AWS Glue" style="sketch=0;outlineConnect=0;fontColor=#232F3E;gradientColor=none;strokeColor=#ffffff;fillColor=#232F3E;dashed=0;verticalLabelPosition=middle;verticalAlign=bottom;align=center;html=1;whiteSpace=wrap;fontSize=10;fontStyle=1;spacing=3;shape=mxgraph.aws4.productIcon;prIcon=mxgraph.aws4.glue;" parent="1" vertex="1">
          <mxGeometry x="170" y="115" width="65" height="80" as="geometry" />
        </mxCell>
        <mxCell id="iCdLz70H8Qc2eGAxDio2-8" value="&lt;font style=&quot;font-size: 7px;&quot;&gt;Amazon Athena&lt;/font&gt;" style="sketch=0;outlineConnect=0;fontColor=#232F3E;gradientColor=none;strokeColor=#ffffff;fillColor=#232F3E;dashed=0;verticalLabelPosition=middle;verticalAlign=bottom;align=center;html=1;whiteSpace=wrap;fontSize=10;fontStyle=1;spacing=3;shape=mxgraph.aws4.productIcon;prIcon=mxgraph.aws4.athena;" parent="1" vertex="1">
          <mxGeometry x="250" y="115" width="70" height="85" as="geometry" />
        </mxCell>
        <mxCell id="iCdLz70H8Qc2eGAxDio2-9" value="Amazon QuickSight" style="sketch=0;outlineConnect=0;fontColor=#232F3E;gradientColor=none;strokeColor=#ffffff;fillColor=#232F3E;dashed=0;verticalLabelPosition=middle;verticalAlign=bottom;align=center;html=1;whiteSpace=wrap;fontSize=10;fontStyle=1;spacing=3;shape=mxgraph.aws4.productIcon;prIcon=mxgraph.aws4.quicksight;" parent="1" vertex="1">
          <mxGeometry x="330" y="115" width="70" height="95" as="geometry" />
        </mxCell>
        <mxCell id="iCdLz70H8Qc2eGAxDio2-10" value="Amazon SageMaker" style="sketch=0;outlineConnect=0;fontColor=#232F3E;gradientColor=none;strokeColor=#ffffff;fillColor=#232F3E;dashed=0;verticalLabelPosition=middle;verticalAlign=bottom;align=center;html=1;whiteSpace=wrap;fontSize=10;fontStyle=1;spacing=3;shape=mxgraph.aws4.productIcon;prIcon=mxgraph.aws4.sagemaker;" parent="1" vertex="1">
          <mxGeometry x="580" y="115" width="70" height="85" as="geometry" />
        </mxCell>
        <mxCell id="iCdLz70H8Qc2eGAxDio2-11" value="" style="image;aspect=fixed;html=1;points=[];align=center;fontSize=12;image=img/lib/azure2/analytics/Azure_Databricks.svg;" parent="1" vertex="1">
          <mxGeometry x="440" y="115" width="62.8" height="68" as="geometry" />
        </mxCell>
        <mxCell id="iCdLz70H8Qc2eGAxDio2-12" value="Data bricks" style="text;html=1;strokeColor=none;fillColor=none;align=center;verticalAlign=middle;whiteSpace=wrap;rounded=0;" parent="1" vertex="1">
          <mxGeometry x="441.4" y="183" width="60" height="30" as="geometry" />
        </mxCell>
        <mxCell id="iCdLz70H8Qc2eGAxDio2-13" value="Data Storage &amp;amp; Process" style="rounded=0;whiteSpace=wrap;html=1;" parent="1" vertex="1">
          <mxGeometry x="340" y="310" width="120" height="30" as="geometry" />
        </mxCell>
        <mxCell id="iCdLz70H8Qc2eGAxDio2-14" value="Unstructure" style="rounded=0;whiteSpace=wrap;html=1;fontStyle=1;fillColor=#fff2cc;strokeColor=#d6b656;" parent="1" vertex="1">
          <mxGeometry x="115" y="370" width="120" height="30" as="geometry" />
        </mxCell>
        <mxCell id="iCdLz70H8Qc2eGAxDio2-15" value="Structure" style="rounded=0;whiteSpace=wrap;html=1;fillColor=#f8cecc;strokeColor=#b85450;" parent="1" vertex="1">
          <mxGeometry x="530" y="370" width="120" height="30" as="geometry" />
        </mxCell>
        <mxCell id="iCdLz70H8Qc2eGAxDio2-16" value="Batch" style="text;html=1;strokeColor=none;fillColor=none;align=center;verticalAlign=middle;whiteSpace=wrap;rounded=0;" parent="1" vertex="1">
          <mxGeometry x="280" y="290" width="60" height="30" as="geometry" />
        </mxCell>
        <mxCell id="iCdLz70H8Qc2eGAxDio2-17" value="User Generated" style="text;html=1;strokeColor=#82b366;fillColor=#d5e8d4;align=center;verticalAlign=middle;whiteSpace=wrap;rounded=0;" parent="1" vertex="1">
          <mxGeometry x="20" y="420" width="90" height="30" as="geometry" />
        </mxCell>
        <mxCell id="iCdLz70H8Qc2eGAxDio2-18" value="File Size &amp;amp; Type is known" style="text;html=1;strokeColor=none;fillColor=none;align=center;verticalAlign=middle;whiteSpace=wrap;rounded=0;" parent="1" vertex="1">
          <mxGeometry x="10" y="390" width="100" height="30" as="geometry" />
        </mxCell>
        <mxCell id="iCdLz70H8Qc2eGAxDio2-19" value="" style="shape=image;html=1;verticalAlign=top;verticalLabelPosition=bottom;labelBackgroundColor=#ffffff;imageAspect=0;aspect=fixed;image=https://cdn2.iconfinder.com/data/icons/crystalproject/128x128/devices/hdd_unmount.png" parent="1" vertex="1">
          <mxGeometry x="10" y="460" width="48" height="48" as="geometry" />
        </mxCell>
        <mxCell id="iCdLz70H8Qc2eGAxDio2-20" value="EBS" style="text;html=1;strokeColor=none;fillColor=none;align=center;verticalAlign=middle;whiteSpace=wrap;rounded=0;fontStyle=1;fontColor=#FF3333;" parent="1" vertex="1">
          <mxGeometry x="58" y="460" width="60" height="30" as="geometry" />
        </mxCell>
        <mxCell id="iCdLz70H8Qc2eGAxDio2-21" value="" style="outlineConnect=0;dashed=0;verticalLabelPosition=bottom;verticalAlign=top;align=center;html=1;shape=mxgraph.aws3.efs;fillColor=#E05243;gradientColor=none;" parent="1" vertex="1">
          <mxGeometry x="10" y="520" width="46.5" height="53" as="geometry" />
        </mxCell>
        <mxCell id="iCdLz70H8Qc2eGAxDio2-22" value="EFS" style="text;html=1;strokeColor=none;fillColor=none;align=center;verticalAlign=middle;whiteSpace=wrap;rounded=0;fontStyle=1;fontColor=#FF3333;" parent="1" vertex="1">
          <mxGeometry x="60" y="531.5" width="60" height="30" as="geometry" />
        </mxCell>
        <mxCell id="iCdLz70H8Qc2eGAxDio2-23" value="App Generated" style="text;html=1;strokeColor=#82b366;fillColor=#d5e8d4;align=center;verticalAlign=middle;whiteSpace=wrap;rounded=0;" parent="1" vertex="1">
          <mxGeometry x="250" y="420" width="90" height="30" as="geometry" />
        </mxCell>
        <mxCell id="iCdLz70H8Qc2eGAxDio2-25" value="" style="sketch=0;points=[[0,0,0],[0.25,0,0],[0.5,0,0],[0.75,0,0],[1,0,0],[0,1,0],[0.25,1,0],[0.5,1,0],[0.75,1,0],[1,1,0],[0,0.25,0],[0,0.5,0],[0,0.75,0],[1,0.25,0],[1,0.5,0],[1,0.75,0]];outlineConnect=0;fontColor=#232F3E;gradientColor=#60A337;gradientDirection=north;fillColor=#277116;strokeColor=#ffffff;dashed=0;verticalLabelPosition=bottom;verticalAlign=top;align=center;html=1;fontSize=12;fontStyle=0;aspect=fixed;shape=mxgraph.aws4.resourceIcon;resIcon=mxgraph.aws4.s3;" parent="1" vertex="1">
          <mxGeometry x="210" y="470" width="48" height="48" as="geometry" />
        </mxCell>
        <mxCell id="iCdLz70H8Qc2eGAxDio2-26" value="S3" style="text;html=1;strokeColor=none;fillColor=none;align=center;verticalAlign=middle;whiteSpace=wrap;rounded=0;fontStyle=1;fontColor=#FF3333;" parent="1" vertex="1">
          <mxGeometry x="258" y="478" width="60" height="30" as="geometry" />
        </mxCell>
        <mxCell id="iCdLz70H8Qc2eGAxDio2-27" value="" style="sketch=0;outlineConnect=0;fontColor=#232F3E;gradientColor=none;fillColor=#4D27AA;strokeColor=none;dashed=0;verticalLabelPosition=bottom;verticalAlign=top;align=center;html=1;fontSize=12;fontStyle=0;aspect=fixed;pointerEvents=1;shape=mxgraph.aws4.data_lake_resource_icon;" parent="1" vertex="1">
          <mxGeometry x="210" y="537" width="48" height="48" as="geometry" />
        </mxCell>
        <mxCell id="iCdLz70H8Qc2eGAxDio2-28" value="Data Lake" style="text;html=1;strokeColor=none;fillColor=none;align=center;verticalAlign=middle;whiteSpace=wrap;rounded=0;fontStyle=1;fontColor=#FF3333;" parent="1" vertex="1">
          <mxGeometry x="270" y="543" width="60" height="30" as="geometry" />
        </mxCell>
        <mxCell id="iCdLz70H8Qc2eGAxDio2-29" value="" style="endArrow=none;html=1;rounded=0;entryX=1;entryY=1;entryDx=0;entryDy=0;" parent="1" target="iCdLz70H8Qc2eGAxDio2-16" edge="1">
          <mxGeometry width="50" height="50" relative="1" as="geometry">
            <mxPoint x="160" y="320" as="sourcePoint" />
            <mxPoint x="400" y="500" as="targetPoint" />
          </mxGeometry>
        </mxCell>
        <mxCell id="iCdLz70H8Qc2eGAxDio2-30" value="" style="endArrow=none;html=1;rounded=0;exitX=0.386;exitY=-0.081;exitDx=0;exitDy=0;exitPerimeter=0;" parent="1" source="iCdLz70H8Qc2eGAxDio2-14" edge="1">
          <mxGeometry width="50" height="50" relative="1" as="geometry">
            <mxPoint x="350" y="550" as="sourcePoint" />
            <mxPoint x="160" y="320" as="targetPoint" />
          </mxGeometry>
        </mxCell>
        <mxCell id="iCdLz70H8Qc2eGAxDio2-31" value="" style="endArrow=none;html=1;rounded=0;" parent="1" edge="1">
          <mxGeometry width="50" height="50" relative="1" as="geometry">
            <mxPoint x="460" y="324.71" as="sourcePoint" />
            <mxPoint x="570" y="325" as="targetPoint" />
          </mxGeometry>
        </mxCell>
        <mxCell id="iCdLz70H8Qc2eGAxDio2-32" value="" style="endArrow=none;html=1;rounded=0;exitX=0.386;exitY=-0.081;exitDx=0;exitDy=0;exitPerimeter=0;" parent="1" edge="1">
          <mxGeometry width="50" height="50" relative="1" as="geometry">
            <mxPoint x="571" y="370" as="sourcePoint" />
            <mxPoint x="570" y="322" as="targetPoint" />
          </mxGeometry>
        </mxCell>
        <mxCell id="iCdLz70H8Qc2eGAxDio2-33" value="Relationl" style="text;html=1;strokeColor=#82b366;fillColor=#d5e8d4;align=center;verticalAlign=middle;whiteSpace=wrap;rounded=0;" parent="1" vertex="1">
          <mxGeometry x="414" y="420" width="90" height="30" as="geometry" />
        </mxCell>
        <mxCell id="iCdLz70H8Qc2eGAxDio2-34" value="No-SQL" style="text;html=1;strokeColor=#82b366;fillColor=#d5e8d4;align=center;verticalAlign=middle;whiteSpace=wrap;rounded=0;" parent="1" vertex="1">
          <mxGeometry x="650" y="420" width="90" height="30" as="geometry" />
        </mxCell>
        <mxCell id="iCdLz70H8Qc2eGAxDio2-35" value="OLTP" style="text;html=1;strokeColor=#d79b00;fillColor=#ffe6cc;align=center;verticalAlign=middle;whiteSpace=wrap;rounded=0;fontStyle=1" parent="1" vertex="1">
          <mxGeometry x="350" y="460" width="60" height="20" as="geometry" />
        </mxCell>
        <mxCell id="iCdLz70H8Qc2eGAxDio2-36" value="OLAP" style="text;html=1;strokeColor=#d79b00;fillColor=#ffe6cc;align=center;verticalAlign=middle;whiteSpace=wrap;rounded=0;fontStyle=1" parent="1" vertex="1">
          <mxGeometry x="504" y="458" width="60" height="20" as="geometry" />
        </mxCell>
        <mxCell id="iCdLz70H8Qc2eGAxDio2-37" value="" style="outlineConnect=0;dashed=0;verticalLabelPosition=bottom;verticalAlign=top;align=center;html=1;shape=mxgraph.aws3.rds;fillColor=#2E73B8;gradientColor=none;" parent="1" vertex="1">
          <mxGeometry x="359" y="490" width="42" height="51" as="geometry" />
        </mxCell>
        <mxCell id="iCdLz70H8Qc2eGAxDio2-38" value="RDS" style="text;html=1;strokeColor=none;fillColor=none;align=center;verticalAlign=middle;whiteSpace=wrap;rounded=0;fontStyle=1;fontColor=#FF3333;" parent="1" vertex="1">
          <mxGeometry x="350" y="537" width="60" height="30" as="geometry" />
        </mxCell>
        <mxCell id="iCdLz70H8Qc2eGAxDio2-39" value="" style="outlineConnect=0;dashed=0;verticalLabelPosition=bottom;verticalAlign=top;align=center;html=1;shape=mxgraph.aws3.redshift;fillColor=#2E73B8;gradientColor=none;" parent="1" vertex="1">
          <mxGeometry x="504.25" y="481" width="59.75" height="60" as="geometry" />
        </mxCell>
        <mxCell id="iCdLz70H8Qc2eGAxDio2-40" value="Redshift" style="text;html=1;strokeColor=none;fillColor=none;align=center;verticalAlign=middle;whiteSpace=wrap;rounded=0;fontStyle=1;fontColor=#FF3333;" parent="1" vertex="1">
          <mxGeometry x="504.25" y="537" width="60" height="30" as="geometry" />
        </mxCell>
        <mxCell id="iCdLz70H8Qc2eGAxDio2-41" value="Amazon DynamoDB" style="sketch=0;outlineConnect=0;fontColor=#232F3E;gradientColor=none;strokeColor=#ffffff;fillColor=#232F3E;dashed=0;verticalLabelPosition=middle;verticalAlign=bottom;align=center;html=1;whiteSpace=wrap;fontSize=10;fontStyle=1;spacing=3;shape=mxgraph.aws4.productIcon;prIcon=mxgraph.aws4.dynamodb;" parent="1" vertex="1">
          <mxGeometry x="680" y="458" width="50" height="80" as="geometry" />
        </mxCell>
        <mxCell id="iCdLz70H8Qc2eGAxDio2-42" value="" style="endArrow=none;html=1;rounded=0;entryX=0;entryY=1;entryDx=0;entryDy=0;exitX=0.914;exitY=1.024;exitDx=0;exitDy=0;exitPerimeter=0;" parent="1" source="iCdLz70H8Qc2eGAxDio2-18" target="iCdLz70H8Qc2eGAxDio2-14" edge="1">
          <mxGeometry width="50" height="50" relative="1" as="geometry">
            <mxPoint x="420" y="550" as="sourcePoint" />
            <mxPoint x="470" y="500" as="targetPoint" />
          </mxGeometry>
        </mxCell>
        <mxCell id="iCdLz70H8Qc2eGAxDio2-43" value="" style="endArrow=none;html=1;rounded=0;entryX=0;entryY=1;entryDx=0;entryDy=0;" parent="1" source="iCdLz70H8Qc2eGAxDio2-23" edge="1">
          <mxGeometry width="50" height="50" relative="1" as="geometry">
            <mxPoint x="221" y="421" as="sourcePoint" />
            <mxPoint x="235" y="400" as="targetPoint" />
          </mxGeometry>
        </mxCell>
        <mxCell id="iCdLz70H8Qc2eGAxDio2-44" value="" style="endArrow=none;html=1;rounded=0;entryX=0;entryY=1;entryDx=0;entryDy=0;exitX=0.75;exitY=0;exitDx=0;exitDy=0;" parent="1" source="iCdLz70H8Qc2eGAxDio2-33" edge="1">
          <mxGeometry width="50" height="50" relative="1" as="geometry">
            <mxPoint x="564" y="420" as="sourcePoint" />
            <mxPoint x="530" y="400" as="targetPoint" />
          </mxGeometry>
        </mxCell>
        <mxCell id="iCdLz70H8Qc2eGAxDio2-45" value="" style="endArrow=none;html=1;rounded=0;entryX=0;entryY=1;entryDx=0;entryDy=0;" parent="1" source="iCdLz70H8Qc2eGAxDio2-34" edge="1">
          <mxGeometry width="50" height="50" relative="1" as="geometry">
            <mxPoint x="602" y="420" as="sourcePoint" />
            <mxPoint x="650" y="400" as="targetPoint" />
          </mxGeometry>
        </mxCell>
        <mxCell id="iCdLz70H8Qc2eGAxDio2-46" value="AWS Physical Architecture" style="rounded=0;whiteSpace=wrap;html=1;" parent="1" vertex="1">
          <mxGeometry x="354" y="640" width="120" height="30" as="geometry" />
        </mxCell>
        <mxCell id="iCdLz70H8Qc2eGAxDio2-47" value="US" style="rounded=0;whiteSpace=wrap;html=1;" parent="1" vertex="1">
          <mxGeometry x="58" y="680" width="120" height="30" as="geometry" />
        </mxCell>
        <mxCell id="iCdLz70H8Qc2eGAxDio2-48" value="APAC" style="rounded=0;whiteSpace=wrap;html=1;" parent="1" vertex="1">
          <mxGeometry x="370" y="680" width="120" height="30" as="geometry" />
        </mxCell>
        <mxCell id="iCdLz70H8Qc2eGAxDio2-49" value="Europe" style="rounded=0;whiteSpace=wrap;html=1;" parent="1" vertex="1">
          <mxGeometry x="670" y="680" width="120" height="30" as="geometry" />
        </mxCell>
        <mxCell id="iCdLz70H8Qc2eGAxDio2-50" value="EastUS" style="rounded=0;whiteSpace=wrap;html=1;" parent="1" vertex="1">
          <mxGeometry x="10" y="720" width="50" height="30" as="geometry" />
        </mxCell>
        <mxCell id="iCdLz70H8Qc2eGAxDio2-51" value="WestUS" style="rounded=0;whiteSpace=wrap;html=1;" parent="1" vertex="1">
          <mxGeometry x="90" y="720" width="50" height="30" as="geometry" />
        </mxCell>
        <mxCell id="iCdLz70H8Qc2eGAxDio2-52" value="CentralUS" style="rounded=0;whiteSpace=wrap;html=1;" parent="1" vertex="1">
          <mxGeometry x="180" y="720" width="60" height="30" as="geometry" />
        </mxCell>
        <mxCell id="iCdLz70H8Qc2eGAxDio2-53" value="Japan" style="rounded=0;whiteSpace=wrap;html=1;" parent="1" vertex="1">
          <mxGeometry x="330" y="720" width="50" height="30" as="geometry" />
        </mxCell>
        <mxCell id="iCdLz70H8Qc2eGAxDio2-54" value="Aus" style="rounded=0;whiteSpace=wrap;html=1;" parent="1" vertex="1">
          <mxGeometry x="391.4" y="720" width="50" height="30" as="geometry" />
        </mxCell>
        <mxCell id="iCdLz70H8Qc2eGAxDio2-55" value="Singapore" style="rounded=0;whiteSpace=wrap;html=1;" parent="1" vertex="1">
          <mxGeometry x="454.25" y="720" width="65.75" height="30" as="geometry" />
        </mxCell>
        <mxCell id="iCdLz70H8Qc2eGAxDio2-56" value="" style="sketch=0;pointerEvents=1;shadow=0;dashed=0;html=1;strokeColor=none;fillColor=#005F4B;labelPosition=center;verticalLabelPosition=bottom;verticalAlign=top;align=center;outlineConnect=0;shape=mxgraph.veeam2.datacenter;" parent="1" vertex="1">
          <mxGeometry x="10" y="770" width="63" height="43" as="geometry" />
        </mxCell>
        <mxCell id="iCdLz70H8Qc2eGAxDio2-57" value="" style="sketch=0;pointerEvents=1;shadow=0;dashed=0;html=1;strokeColor=none;fillColor=#005F4B;labelPosition=center;verticalLabelPosition=bottom;verticalAlign=top;align=center;outlineConnect=0;shape=mxgraph.veeam2.datacenter;" parent="1" vertex="1">
          <mxGeometry x="87" y="770" width="63" height="43" as="geometry" />
        </mxCell>
        <mxCell id="iCdLz70H8Qc2eGAxDio2-58" value="" style="sketch=0;pointerEvents=1;shadow=0;dashed=0;html=1;strokeColor=none;fillColor=#005F4B;labelPosition=center;verticalLabelPosition=bottom;verticalAlign=top;align=center;outlineConnect=0;shape=mxgraph.veeam2.datacenter;" parent="1" vertex="1">
          <mxGeometry x="173.5" y="770" width="63" height="43" as="geometry" />
        </mxCell>
        <mxCell id="iCdLz70H8Qc2eGAxDio2-59" value="" style="sketch=0;points=[[0,0,0],[0.25,0,0],[0.5,0,0],[0.75,0,0],[1,0,0],[0,1,0],[0.25,1,0],[0.5,1,0],[0.75,1,0],[1,1,0],[0,0.25,0],[0,0.5,0],[0,0.75,0],[1,0.25,0],[1,0.5,0],[1,0.75,0]];outlineConnect=0;fontColor=#232F3E;gradientColor=#4AB29A;gradientDirection=north;fillColor=#116D5B;strokeColor=#ffffff;dashed=0;verticalLabelPosition=bottom;verticalAlign=top;align=center;html=1;fontSize=12;fontStyle=0;aspect=fixed;shape=mxgraph.aws4.resourceIcon;resIcon=mxgraph.aws4.sagemaker;" parent="1" vertex="1">
          <mxGeometry x="230" y="760" width="28" height="28" as="geometry" />
        </mxCell>
        <mxCell id="iCdLz70H8Qc2eGAxDio2-60" value="" style="sketch=0;pointerEvents=1;shadow=0;dashed=0;html=1;strokeColor=none;fillColor=#005F4B;labelPosition=center;verticalLabelPosition=bottom;verticalAlign=top;align=center;outlineConnect=0;shape=mxgraph.veeam2.datacenter;" parent="1" vertex="1">
          <mxGeometry x="140" y="850" width="63" height="43" as="geometry" />
        </mxCell>
        <mxCell id="iCdLz70H8Qc2eGAxDio2-61" value="" style="sketch=0;pointerEvents=1;shadow=0;dashed=0;html=1;strokeColor=none;fillColor=#005F4B;labelPosition=center;verticalLabelPosition=bottom;verticalAlign=top;align=center;outlineConnect=0;shape=mxgraph.veeam2.datacenter;" parent="1" vertex="1">
          <mxGeometry x="250" y="850" width="63" height="43" as="geometry" />
        </mxCell>
        <mxCell id="iCdLz70H8Qc2eGAxDio2-62" value="" style="sketch=0;points=[[0,0,0],[0.25,0,0],[0.5,0,0],[0.75,0,0],[1,0,0],[0,1,0],[0.25,1,0],[0.5,1,0],[0.75,1,0],[1,1,0],[0,0.25,0],[0,0.5,0],[0,0.75,0],[1,0.25,0],[1,0.5,0],[1,0.75,0]];outlineConnect=0;fontColor=#232F3E;gradientColor=#4AB29A;gradientDirection=north;fillColor=#116D5B;strokeColor=#ffffff;dashed=0;verticalLabelPosition=bottom;verticalAlign=top;align=center;html=1;fontSize=12;fontStyle=0;aspect=fixed;shape=mxgraph.aws4.resourceIcon;resIcon=mxgraph.aws4.sagemaker;" parent="1" vertex="1">
          <mxGeometry x="296" y="840" width="28" height="28" as="geometry" />
        </mxCell>
        <mxCell id="iCdLz70H8Qc2eGAxDio2-63" value="" style="sketch=0;points=[[0,0,0],[0.25,0,0],[0.5,0,0],[0.75,0,0],[1,0,0],[0,1,0],[0.25,1,0],[0.5,1,0],[0.75,1,0],[1,1,0],[0,0.25,0],[0,0.5,0],[0,0.75,0],[1,0.25,0],[1,0.5,0],[1,0.75,0]];outlineConnect=0;fontColor=#232F3E;gradientColor=#4AB29A;gradientDirection=north;fillColor=#116D5B;strokeColor=#ffffff;dashed=0;verticalLabelPosition=bottom;verticalAlign=top;align=center;html=1;fontSize=12;fontStyle=0;aspect=fixed;shape=mxgraph.aws4.resourceIcon;resIcon=mxgraph.aws4.sagemaker;" parent="1" vertex="1">
          <mxGeometry x="188.5" y="840" width="28" height="28" as="geometry" />
        </mxCell>
        <mxCell id="iCdLz70H8Qc2eGAxDio2-64" value="" style="endArrow=none;html=1;rounded=0;" parent="1" source="iCdLz70H8Qc2eGAxDio2-60" target="iCdLz70H8Qc2eGAxDio2-58" edge="1">
          <mxGeometry width="50" height="50" relative="1" as="geometry">
            <mxPoint x="420" y="870" as="sourcePoint" />
            <mxPoint x="470" y="820" as="targetPoint" />
          </mxGeometry>
        </mxCell>
        <mxCell id="iCdLz70H8Qc2eGAxDio2-65" value="" style="endArrow=none;html=1;rounded=0;" parent="1" source="iCdLz70H8Qc2eGAxDio2-61" edge="1">
          <mxGeometry width="50" height="50" relative="1" as="geometry">
            <mxPoint x="203" y="850" as="sourcePoint" />
            <mxPoint x="218" y="813" as="targetPoint" />
          </mxGeometry>
        </mxCell>
        <mxCell id="iCdLz70H8Qc2eGAxDio2-66" value="" style="endArrow=none;html=1;rounded=0;" parent="1" source="iCdLz70H8Qc2eGAxDio2-61" edge="1">
          <mxGeometry width="50" height="50" relative="1" as="geometry">
            <mxPoint x="243" y="905" as="sourcePoint" />
            <mxPoint x="203" y="868" as="targetPoint" />
          </mxGeometry>
        </mxCell>
        <mxCell id="iCdLz70H8Qc2eGAxDio2-67" value="Geography" style="text;html=1;strokeColor=#6c8ebf;fillColor=#dae8fc;align=center;verticalAlign=middle;whiteSpace=wrap;rounded=0;" parent="1" vertex="1">
          <mxGeometry x="564" y="730" width="76" height="30" as="geometry" />
        </mxCell>
        <mxCell id="iCdLz70H8Qc2eGAxDio2-68" value="Regions" style="text;html=1;strokeColor=#6c8ebf;fillColor=#dae8fc;align=center;verticalAlign=middle;whiteSpace=wrap;rounded=0;" parent="1" vertex="1">
          <mxGeometry x="564.25" y="776.5" width="76" height="30" as="geometry" />
        </mxCell>
        <mxCell id="iCdLz70H8Qc2eGAxDio2-69" value="Availability Zone" style="text;html=1;strokeColor=#6c8ebf;fillColor=#dae8fc;align=center;verticalAlign=middle;whiteSpace=wrap;rounded=0;" parent="1" vertex="1">
          <mxGeometry x="564.25" y="820" width="76" height="30" as="geometry" />
        </mxCell>
        <mxCell id="iCdLz70H8Qc2eGAxDio2-70" value="Data Center" style="text;html=1;strokeColor=#6c8ebf;fillColor=#dae8fc;align=center;verticalAlign=middle;whiteSpace=wrap;rounded=0;" parent="1" vertex="1">
          <mxGeometry x="564.25" y="868" width="76" height="30" as="geometry" />
        </mxCell>
        <mxCell id="iCdLz70H8Qc2eGAxDio2-71" value="AWS Governance&lt;br&gt;Architecture" style="rounded=0;whiteSpace=wrap;html=1;" parent="1" vertex="1">
          <mxGeometry x="359" y="920" width="120" height="30" as="geometry" />
        </mxCell>
        <mxCell id="iCdLz70H8Qc2eGAxDio2-72" value="ARMACO" style="rounded=0;whiteSpace=wrap;html=1;fillColor=#fff2cc;strokeColor=#d6b656;" parent="1" vertex="1">
          <mxGeometry x="350" y="960" width="120" height="30" as="geometry" />
        </mxCell>
        <mxCell id="iCdLz70H8Qc2eGAxDio2-73" value="Root Organization Account" style="text;html=1;strokeColor=none;fillColor=none;align=center;verticalAlign=middle;whiteSpace=wrap;rounded=0;fontStyle=1;fontColor=#FF0000;" parent="1" vertex="1">
          <mxGeometry x="625" y="950" width="140" height="30" as="geometry" />
        </mxCell>
        <mxCell id="iCdLz70H8Qc2eGAxDio2-74" value="Refinary" style="rounded=0;whiteSpace=wrap;html=1;fillColor=#fff2cc;strokeColor=#d6b656;" parent="1" vertex="1">
          <mxGeometry x="174" y="1000" width="120" height="30" as="geometry" />
        </mxCell>
        <mxCell id="iCdLz70H8Qc2eGAxDio2-75" value="Pipeline" style="rounded=0;whiteSpace=wrap;html=1;fillColor=#fff2cc;strokeColor=#d6b656;" parent="1" vertex="1">
          <mxGeometry x="354" y="1000" width="120" height="30" as="geometry" />
        </mxCell>
        <mxCell id="iCdLz70H8Qc2eGAxDio2-76" value="Marketing" style="rounded=0;whiteSpace=wrap;html=1;fillColor=#fff2cc;strokeColor=#d6b656;" parent="1" vertex="1">
          <mxGeometry x="520.25" y="1000" width="120" height="30" as="geometry" />
        </mxCell>
        <mxCell id="iCdLz70H8Qc2eGAxDio2-77" value="Org UNIT" style="text;html=1;strokeColor=none;fillColor=none;align=center;verticalAlign=middle;whiteSpace=wrap;rounded=0;fontStyle=1;fontColor=#FF0000;" parent="1" vertex="1">
          <mxGeometry x="635" y="1000" width="140" height="30" as="geometry" />
        </mxCell>
        <mxCell id="iCdLz70H8Qc2eGAxDio2-78" value="Domestic" style="text;html=1;strokeColor=#6c8ebf;fillColor=#dae8fc;align=center;verticalAlign=middle;whiteSpace=wrap;rounded=0;fontStyle=1" parent="1" vertex="1">
          <mxGeometry x="85" y="1040" width="60" height="30" as="geometry" />
        </mxCell>
        <mxCell id="iCdLz70H8Qc2eGAxDio2-79" value="International" style="text;html=1;strokeColor=#6c8ebf;fillColor=#dae8fc;align=center;verticalAlign=middle;whiteSpace=wrap;rounded=0;fontStyle=1" parent="1" vertex="1">
          <mxGeometry x="270" y="1040" width="80" height="30" as="geometry" />
        </mxCell>
        <mxCell id="iCdLz70H8Qc2eGAxDio2-80" value="Accounts" style="text;html=1;strokeColor=none;fillColor=none;align=center;verticalAlign=middle;whiteSpace=wrap;rounded=0;fontStyle=1;fontColor=#FF0000;" parent="1" vertex="1">
          <mxGeometry x="640" y="1040" width="140" height="30" as="geometry" />
        </mxCell>
        <mxCell id="iCdLz70H8Qc2eGAxDio2-81" value="Busan" style="ellipse;whiteSpace=wrap;html=1;aspect=fixed;" parent="1" vertex="1">
          <mxGeometry x="35" y="1090" width="50" height="50" as="geometry" />
        </mxCell>
        <mxCell id="iCdLz70H8Qc2eGAxDio2-82" value="Seoul" style="ellipse;whiteSpace=wrap;html=1;aspect=fixed;" parent="1" vertex="1">
          <mxGeometry x="100" y="1090" width="50" height="50" as="geometry" />
        </mxCell>
        <mxCell id="iCdLz70H8Qc2eGAxDio2-83" value="Ulsan" style="ellipse;whiteSpace=wrap;html=1;aspect=fixed;" parent="1" vertex="1">
          <mxGeometry x="178" y="1090" width="50" height="50" as="geometry" />
        </mxCell>
        <mxCell id="iCdLz70H8Qc2eGAxDio2-84" value="Resource Group" style="text;html=1;strokeColor=none;fillColor=none;align=center;verticalAlign=middle;whiteSpace=wrap;rounded=0;fontStyle=1;fontColor=#FF0000;" parent="1" vertex="1">
          <mxGeometry x="640.25" y="1090" width="140" height="30" as="geometry" />
        </mxCell>
        <mxCell id="iCdLz70H8Qc2eGAxDio2-85" value="IAM" style="rounded=0;whiteSpace=wrap;html=1;" parent="1" vertex="1">
          <mxGeometry x="360" y="1169" width="120" height="30" as="geometry" />
        </mxCell>
        <mxCell id="iCdLz70H8Qc2eGAxDio2-86" value="Users/Group" style="rounded=1;whiteSpace=wrap;html=1;" parent="1" vertex="1">
          <mxGeometry x="138" y="1210" width="82" height="30" as="geometry" />
        </mxCell>
        <mxCell id="iCdLz70H8Qc2eGAxDio2-87" value="Roles" style="rounded=1;whiteSpace=wrap;html=1;" parent="1" vertex="1">
          <mxGeometry x="309.4" y="1210" width="82" height="30" as="geometry" />
        </mxCell>
        <mxCell id="iCdLz70H8Qc2eGAxDio2-88" value="AWS Services" style="rounded=0;whiteSpace=wrap;html=1;" parent="1" vertex="1">
          <mxGeometry x="313" y="1330" width="120" height="30" as="geometry" />
        </mxCell>
        <mxCell id="iCdLz70H8Qc2eGAxDio2-89" value="Compute" style="rounded=0;whiteSpace=wrap;html=1;" parent="1" vertex="1">
          <mxGeometry x="110" y="1400" width="77" height="30" as="geometry" />
        </mxCell>
        <mxCell id="iCdLz70H8Qc2eGAxDio2-90" value="CPU + Memory + Storage" style="text;html=1;strokeColor=none;fillColor=none;align=center;verticalAlign=middle;whiteSpace=wrap;rounded=0;" parent="1" vertex="1">
          <mxGeometry x="42.5" y="1430" width="165" height="30" as="geometry" />
        </mxCell>
        <mxCell id="iCdLz70H8Qc2eGAxDio2-91" value="" style="sketch=0;points=[[0,0,0],[0.25,0,0],[0.5,0,0],[0.75,0,0],[1,0,0],[0,1,0],[0.25,1,0],[0.5,1,0],[0.75,1,0],[1,1,0],[0,0.25,0],[0,0.5,0],[0,0.75,0],[1,0.25,0],[1,0.5,0],[1,0.75,0]];outlineConnect=0;fontColor=#232F3E;gradientColor=#F78E04;gradientDirection=north;fillColor=#D05C17;strokeColor=#ffffff;dashed=0;verticalLabelPosition=bottom;verticalAlign=top;align=center;html=1;fontSize=12;fontStyle=0;aspect=fixed;shape=mxgraph.aws4.resourceIcon;resIcon=mxgraph.aws4.ec2;" parent="1" vertex="1">
          <mxGeometry x="42.5" y="1470" width="38" height="38" as="geometry" />
        </mxCell>
        <mxCell id="iCdLz70H8Qc2eGAxDio2-92" value="" style="sketch=0;outlineConnect=0;fontColor=#232F3E;gradientColor=none;fillColor=#3F8624;strokeColor=none;dashed=0;verticalLabelPosition=bottom;verticalAlign=top;align=center;html=1;fontSize=12;fontStyle=0;aspect=fixed;pointerEvents=1;shape=mxgraph.aws4.bucket;" parent="1" vertex="1">
          <mxGeometry x="97.5" y="1470" width="45" height="46.8" as="geometry" />
        </mxCell>
        <mxCell id="iCdLz70H8Qc2eGAxDio2-93" value="" style="outlineConnect=0;dashed=0;verticalLabelPosition=bottom;verticalAlign=top;align=center;html=1;shape=mxgraph.aws3.rds;fillColor=#2E73B8;gradientColor=none;" parent="1" vertex="1">
          <mxGeometry x="154" y="1467.9" width="42" height="51" as="geometry" />
        </mxCell>
        <mxCell id="iCdLz70H8Qc2eGAxDio2-94" value="EC2" style="text;html=1;strokeColor=none;fillColor=none;align=center;verticalAlign=middle;whiteSpace=wrap;rounded=0;" parent="1" vertex="1">
          <mxGeometry x="27" y="1516.8" width="60" height="30" as="geometry" />
        </mxCell>
        <mxCell id="iCdLz70H8Qc2eGAxDio2-95" value="S3" style="text;html=1;strokeColor=none;fillColor=none;align=center;verticalAlign=middle;whiteSpace=wrap;rounded=0;" parent="1" vertex="1">
          <mxGeometry x="83" y="1518.8999999999999" width="60" height="30" as="geometry" />
        </mxCell>
        <mxCell id="iCdLz70H8Qc2eGAxDio2-96" value="RDS" style="text;html=1;strokeColor=none;fillColor=none;align=center;verticalAlign=middle;whiteSpace=wrap;rounded=0;" parent="1" vertex="1">
          <mxGeometry x="138" y="1518.8999999999999" width="60" height="30" as="geometry" />
        </mxCell>
        <mxCell id="iCdLz70H8Qc2eGAxDio2-97" value="Serverless" style="rounded=0;whiteSpace=wrap;html=1;" parent="1" vertex="1">
          <mxGeometry x="495.5" y="1400" width="77" height="30" as="geometry" />
        </mxCell>
        <mxCell id="iCdLz70H8Qc2eGAxDio2-98" value="" style="sketch=0;points=[[0,0,0],[0.25,0,0],[0.5,0,0],[0.75,0,0],[1,0,0],[0,1,0],[0.25,1,0],[0.5,1,0],[0.75,1,0],[1,1,0],[0,0.25,0],[0,0.5,0],[0,0.75,0],[1,0.25,0],[1,0.5,0],[1,0.75,0]];outlineConnect=0;fontColor=#232F3E;gradientColor=#FF4F8B;gradientDirection=north;fillColor=#BC1356;strokeColor=#ffffff;dashed=0;verticalLabelPosition=bottom;verticalAlign=top;align=center;html=1;fontSize=12;fontStyle=0;aspect=fixed;shape=mxgraph.aws4.resourceIcon;resIcon=mxgraph.aws4.sns;" parent="1" vertex="1">
          <mxGeometry x="454.25" y="1440.9" width="39.1" height="39.1" as="geometry" />
        </mxCell>
        <mxCell id="iCdLz70H8Qc2eGAxDio2-99" value="" style="sketch=0;points=[[0,0,0],[0.25,0,0],[0.5,0,0],[0.75,0,0],[1,0,0],[0,1,0],[0.25,1,0],[0.5,1,0],[0.75,1,0],[1,1,0],[0,0.25,0],[0,0.5,0],[0,0.75,0],[1,0.25,0],[1,0.5,0],[1,0.75,0]];outlineConnect=0;fontColor=#232F3E;gradientColor=#FF4F8B;gradientDirection=north;fillColor=#BC1356;strokeColor=#ffffff;dashed=0;verticalLabelPosition=bottom;verticalAlign=top;align=center;html=1;fontSize=12;fontStyle=0;aspect=fixed;shape=mxgraph.aws4.resourceIcon;resIcon=mxgraph.aws4.sqs;" parent="1" vertex="1">
          <mxGeometry x="515.25" y="1440.9" width="38" height="38" as="geometry" />
        </mxCell>
        <mxCell id="iCdLz70H8Qc2eGAxDio2-100" value="" style="outlineConnect=0;dashed=0;verticalLabelPosition=bottom;verticalAlign=top;align=center;html=1;shape=mxgraph.aws3.lambda_function;fillColor=#F58534;gradientColor=none;" parent="1" vertex="1">
          <mxGeometry x="570.5" y="1440.9" width="39" height="42" as="geometry" />
        </mxCell>
        <mxCell id="iCdLz70H8Qc2eGAxDio2-101" value="" style="sketch=0;points=[[0,0,0],[0.25,0,0],[0.5,0,0],[0.75,0,0],[1,0,0],[0,1,0],[0.25,1,0],[0.5,1,0],[0.75,1,0],[1,1,0],[0,0.25,0],[0,0.5,0],[0,0.75,0],[1,0.25,0],[1,0.5,0],[1,0.75,0]];outlineConnect=0;fontColor=#232F3E;gradientColor=#4AB29A;gradientDirection=north;fillColor=#116D5B;strokeColor=#ffffff;dashed=0;verticalLabelPosition=bottom;verticalAlign=top;align=center;html=1;fontSize=12;fontStyle=0;aspect=fixed;shape=mxgraph.aws4.resourceIcon;resIcon=mxgraph.aws4.sagemaker;" parent="1" vertex="1">
          <mxGeometry x="207.5" y="1474.4" width="38" height="38" as="geometry" />
        </mxCell>
        <mxCell id="iCdLz70H8Qc2eGAxDio2-102" value="SageMaker" style="text;html=1;strokeColor=none;fillColor=none;align=center;verticalAlign=middle;whiteSpace=wrap;rounded=0;" parent="1" vertex="1">
          <mxGeometry x="196" y="1518.8999999999999" width="60" height="30" as="geometry" />
        </mxCell>
        <mxCell id="iCdLz70H8Qc2eGAxDio2-103" value="SNS" style="text;html=1;strokeColor=none;fillColor=none;align=center;verticalAlign=middle;whiteSpace=wrap;rounded=0;" parent="1" vertex="1">
          <mxGeometry x="441.4" y="1482.8999999999999" width="60" height="30" as="geometry" />
        </mxCell>
        <mxCell id="iCdLz70H8Qc2eGAxDio2-104" value="SQS" style="text;html=1;strokeColor=none;fillColor=none;align=center;verticalAlign=middle;whiteSpace=wrap;rounded=0;" parent="1" vertex="1">
          <mxGeometry x="504" y="1482.3999999999999" width="60" height="30" as="geometry" />
        </mxCell>
        <mxCell id="iCdLz70H8Qc2eGAxDio2-105" value="Lambda" style="text;html=1;strokeColor=none;fillColor=none;align=center;verticalAlign=middle;whiteSpace=wrap;rounded=0;" parent="1" vertex="1">
          <mxGeometry x="560" y="1482.8999999999999" width="60" height="30" as="geometry" />
        </mxCell>
        <mxCell id="iCdLz70H8Qc2eGAxDio2-106" value="" style="sketch=0;points=[[0,0,0],[0.25,0,0],[0.5,0,0],[0.75,0,0],[1,0,0],[0,1,0],[0.25,1,0],[0.5,1,0],[0.75,1,0],[1,1,0],[0,0.25,0],[0,0.5,0],[0,0.75,0],[1,0.25,0],[1,0.5,0],[1,0.75,0]];outlineConnect=0;fontColor=#232F3E;gradientColor=#F78E04;gradientDirection=north;fillColor=#D05C17;strokeColor=#ffffff;dashed=0;verticalLabelPosition=bottom;verticalAlign=top;align=center;html=1;fontSize=12;fontStyle=0;aspect=fixed;shape=mxgraph.aws4.resourceIcon;resIcon=mxgraph.aws4.ec2;" parent="1" vertex="1">
          <mxGeometry x="342" y="1600" width="38" height="38" as="geometry" />
        </mxCell>
        <mxCell id="iCdLz70H8Qc2eGAxDio2-107" value="EC2" style="text;html=1;strokeColor=none;fillColor=none;align=center;verticalAlign=middle;whiteSpace=wrap;rounded=0;" parent="1" vertex="1">
          <mxGeometry x="330" y="1570" width="60" height="30" as="geometry" />
        </mxCell>
        <mxCell id="iCdLz70H8Qc2eGAxDio2-108" value="EC2 Size :" style="text;html=1;strokeColor=none;fillColor=none;align=center;verticalAlign=middle;whiteSpace=wrap;rounded=0;" parent="1" vertex="1">
          <mxGeometry x="196" y="1650" width="60" height="30" as="geometry" />
        </mxCell>
        <mxCell id="iCdLz70H8Qc2eGAxDio2-109" value="" style="sketch=0;outlineConnect=0;fontColor=#232F3E;gradientColor=none;fillColor=#232F3D;strokeColor=none;dashed=0;verticalLabelPosition=bottom;verticalAlign=top;align=center;html=1;fontSize=12;fontStyle=0;aspect=fixed;pointerEvents=1;shape=mxgraph.aws4.users;" parent="1" vertex="1">
          <mxGeometry x="90" y="1715" width="78" height="78" as="geometry" />
        </mxCell>
        <mxCell id="iCdLz70H8Qc2eGAxDio2-110" value="" style="sketch=0;outlineConnect=0;fontColor=#232F3E;gradientColor=none;fillColor=#3F8624;strokeColor=none;dashed=0;verticalLabelPosition=bottom;verticalAlign=top;align=center;html=1;fontSize=12;fontStyle=0;aspect=fixed;pointerEvents=1;shape=mxgraph.aws4.bucket;" parent="1" vertex="1">
          <mxGeometry x="305" y="1715" width="75" height="78" as="geometry" />
        </mxCell>
        <mxCell id="iCdLz70H8Qc2eGAxDio2-111" value="" style="endArrow=classic;html=1;rounded=0;" parent="1" source="iCdLz70H8Qc2eGAxDio2-109" edge="1">
          <mxGeometry width="50" height="50" relative="1" as="geometry">
            <mxPoint x="380" y="1800" as="sourcePoint" />
            <mxPoint x="300" y="1754" as="targetPoint" />
          </mxGeometry>
        </mxCell>
        <mxCell id="iCdLz70H8Qc2eGAxDio2-112" value="s3 browser" style="text;html=1;strokeColor=none;fillColor=none;align=center;verticalAlign=middle;whiteSpace=wrap;rounded=0;" parent="1" vertex="1">
          <mxGeometry x="154" y="1690" width="60" height="30" as="geometry" />
        </mxCell>
        <mxCell id="iCdLz70H8Qc2eGAxDio2-113" value="" style="image;aspect=fixed;html=1;points=[];align=center;fontSize=12;image=img/lib/azure2/security/Key_Vaults.svg;" parent="1" vertex="1">
          <mxGeometry x="286" y="1687" width="28" height="28" as="geometry" />
        </mxCell>
        <mxCell id="esB0qkCkmRwVeEFs85TR-1" value="" style="shape=image;html=1;verticalAlign=top;verticalLabelPosition=bottom;labelBackgroundColor=#ffffff;imageAspect=0;aspect=fixed;image=https://cdn3.iconfinder.com/data/icons/cad-database-presentation-spreadsheet-vector-fil-2/512/19-128.png" parent="1" vertex="1">
          <mxGeometry x="344" y="1687" width="58" height="58" as="geometry" />
        </mxCell>
        <mxCell id="esB0qkCkmRwVeEFs85TR-2" value="" style="sketch=0;points=[[0,0,0],[0.25,0,0],[0.5,0,0],[0.75,0,0],[1,0,0],[0,1,0],[0.25,1,0],[0.5,1,0],[0.75,1,0],[1,1,0],[0,0.25,0],[0,0.5,0],[0,0.75,0],[1,0.25,0],[1,0.5,0],[1,0.75,0]];outlineConnect=0;fontColor=#232F3E;fillColor=#8C4FFF;strokeColor=#ffffff;dashed=0;verticalLabelPosition=bottom;verticalAlign=top;align=center;html=1;fontSize=12;fontStyle=0;aspect=fixed;shape=mxgraph.aws4.resourceIcon;resIcon=mxgraph.aws4.glue;" parent="1" vertex="1">
          <mxGeometry x="520" y="1715" width="78" height="78" as="geometry" />
        </mxCell>
        <mxCell id="esB0qkCkmRwVeEFs85TR-3" value="" style="endArrow=classic;html=1;rounded=0;" parent="1" edge="1">
          <mxGeometry width="50" height="50" relative="1" as="geometry">
            <mxPoint x="383.25" y="1754" as="sourcePoint" />
            <mxPoint x="515.25" y="1754" as="targetPoint" />
          </mxGeometry>
        </mxCell>
        <mxCell id="esB0qkCkmRwVeEFs85TR-4" value="" style="rounded=0;whiteSpace=wrap;html=1;" parent="1" vertex="1">
          <mxGeometry x="670" y="1840" width="240.5" height="100" as="geometry" />
        </mxCell>
        <mxCell id="esB0qkCkmRwVeEFs85TR-5" value="" style="sketch=0;outlineConnect=0;fontColor=#232F3E;gradientColor=none;fillColor=#8C4FFF;strokeColor=none;dashed=0;verticalLabelPosition=bottom;verticalAlign=top;align=center;html=1;fontSize=12;fontStyle=0;aspect=fixed;pointerEvents=1;shape=mxgraph.aws4.aws_glue_data_quality;" parent="1" vertex="1">
          <mxGeometry x="685" y="1862.5" width="55" height="55" as="geometry" />
        </mxCell>
        <mxCell id="esB0qkCkmRwVeEFs85TR-6" value="Assets" style="childLayout=tableLayout;recursiveResize=0;strokeColor=#98bf21;fillColor=#A7C942;shadow=1;" parent="1" vertex="1">
          <mxGeometry x="740" y="1852" width="160" height="76" as="geometry" />
        </mxCell>
        <mxCell id="esB0qkCkmRwVeEFs85TR-7" style="shape=tableRow;horizontal=0;startSize=0;swimlaneHead=0;swimlaneBody=0;top=0;left=0;bottom=0;right=0;dropTarget=0;collapsible=0;recursiveResize=0;expand=0;fontStyle=0;strokeColor=inherit;fillColor=#ffffff;" parent="esB0qkCkmRwVeEFs85TR-6" vertex="1">
          <mxGeometry width="160" height="15" as="geometry" />
        </mxCell>
        <mxCell id="esB0qkCkmRwVeEFs85TR-8" value="Title 1" style="connectable=0;recursiveResize=0;strokeColor=inherit;fillColor=#A7C942;align=center;fontStyle=1;fontColor=#FFFFFF;html=1;" parent="esB0qkCkmRwVeEFs85TR-7" vertex="1">
          <mxGeometry width="53" height="15" as="geometry">
            <mxRectangle width="53" height="15" as="alternateBounds" />
          </mxGeometry>
        </mxCell>
        <mxCell id="esB0qkCkmRwVeEFs85TR-9" value="Title 2" style="connectable=0;recursiveResize=0;strokeColor=inherit;fillColor=#A7C942;align=center;fontStyle=1;fontColor=#FFFFFF;html=1;" parent="esB0qkCkmRwVeEFs85TR-7" vertex="1">
          <mxGeometry x="53" width="54" height="15" as="geometry">
            <mxRectangle width="54" height="15" as="alternateBounds" />
          </mxGeometry>
        </mxCell>
        <mxCell id="esB0qkCkmRwVeEFs85TR-10" value="Title 3" style="connectable=0;recursiveResize=0;strokeColor=inherit;fillColor=#A7C942;align=center;fontStyle=1;fontColor=#FFFFFF;html=1;" parent="esB0qkCkmRwVeEFs85TR-7" vertex="1">
          <mxGeometry x="107" width="53" height="15" as="geometry">
            <mxRectangle width="53" height="15" as="alternateBounds" />
          </mxGeometry>
        </mxCell>
        <mxCell id="esB0qkCkmRwVeEFs85TR-11" value="" style="shape=tableRow;horizontal=0;startSize=0;swimlaneHead=0;swimlaneBody=0;top=0;left=0;bottom=0;right=0;dropTarget=0;collapsible=0;recursiveResize=0;expand=0;fontStyle=0;strokeColor=inherit;fillColor=#ffffff;" parent="esB0qkCkmRwVeEFs85TR-6" vertex="1">
          <mxGeometry y="15" width="160" height="20" as="geometry" />
        </mxCell>
        <mxCell id="esB0qkCkmRwVeEFs85TR-12" value="Value 1" style="connectable=0;recursiveResize=0;strokeColor=inherit;fillColor=inherit;align=center;whiteSpace=wrap;html=1;" parent="esB0qkCkmRwVeEFs85TR-11" vertex="1">
          <mxGeometry width="53" height="20" as="geometry">
            <mxRectangle width="53" height="20" as="alternateBounds" />
          </mxGeometry>
        </mxCell>
        <mxCell id="esB0qkCkmRwVeEFs85TR-13" value="Value 2" style="connectable=0;recursiveResize=0;strokeColor=inherit;fillColor=inherit;align=center;whiteSpace=wrap;html=1;" parent="esB0qkCkmRwVeEFs85TR-11" vertex="1">
          <mxGeometry x="53" width="54" height="20" as="geometry">
            <mxRectangle width="54" height="20" as="alternateBounds" />
          </mxGeometry>
        </mxCell>
        <mxCell id="esB0qkCkmRwVeEFs85TR-14" value="Value 3" style="connectable=0;recursiveResize=0;strokeColor=inherit;fillColor=inherit;align=center;whiteSpace=wrap;html=1;" parent="esB0qkCkmRwVeEFs85TR-11" vertex="1">
          <mxGeometry x="107" width="53" height="20" as="geometry">
            <mxRectangle width="53" height="20" as="alternateBounds" />
          </mxGeometry>
        </mxCell>
        <mxCell id="esB0qkCkmRwVeEFs85TR-15" value="" style="shape=tableRow;horizontal=0;startSize=0;swimlaneHead=0;swimlaneBody=0;top=0;left=0;bottom=0;right=0;dropTarget=0;collapsible=0;recursiveResize=0;expand=0;fontStyle=1;strokeColor=inherit;fillColor=#EAF2D3;" parent="esB0qkCkmRwVeEFs85TR-6" vertex="1">
          <mxGeometry y="35" width="160" height="13" as="geometry" />
        </mxCell>
        <mxCell id="esB0qkCkmRwVeEFs85TR-16" value="Value 4" style="connectable=0;recursiveResize=0;strokeColor=inherit;fillColor=inherit;whiteSpace=wrap;html=1;" parent="esB0qkCkmRwVeEFs85TR-15" vertex="1">
          <mxGeometry width="53" height="13" as="geometry">
            <mxRectangle width="53" height="13" as="alternateBounds" />
          </mxGeometry>
        </mxCell>
        <mxCell id="esB0qkCkmRwVeEFs85TR-17" value="Value 5" style="connectable=0;recursiveResize=0;strokeColor=inherit;fillColor=inherit;whiteSpace=wrap;html=1;" parent="esB0qkCkmRwVeEFs85TR-15" vertex="1">
          <mxGeometry x="53" width="54" height="13" as="geometry">
            <mxRectangle width="54" height="13" as="alternateBounds" />
          </mxGeometry>
        </mxCell>
        <mxCell id="esB0qkCkmRwVeEFs85TR-18" value="Value 6" style="connectable=0;recursiveResize=0;strokeColor=inherit;fillColor=inherit;whiteSpace=wrap;html=1;" parent="esB0qkCkmRwVeEFs85TR-15" vertex="1">
          <mxGeometry x="107" width="53" height="13" as="geometry">
            <mxRectangle width="53" height="13" as="alternateBounds" />
          </mxGeometry>
        </mxCell>
        <mxCell id="esB0qkCkmRwVeEFs85TR-19" value="" style="shape=tableRow;horizontal=0;startSize=0;swimlaneHead=0;swimlaneBody=0;top=0;left=0;bottom=0;right=0;dropTarget=0;collapsible=0;recursiveResize=0;expand=0;fontStyle=0;strokeColor=inherit;fillColor=#ffffff;" parent="esB0qkCkmRwVeEFs85TR-6" vertex="1">
          <mxGeometry y="48" width="160" height="15" as="geometry" />
        </mxCell>
        <mxCell id="esB0qkCkmRwVeEFs85TR-20" value="Value 7" style="connectable=0;recursiveResize=0;strokeColor=inherit;fillColor=inherit;fontStyle=0;align=center;whiteSpace=wrap;html=1;" parent="esB0qkCkmRwVeEFs85TR-19" vertex="1">
          <mxGeometry width="53" height="15" as="geometry">
            <mxRectangle width="53" height="15" as="alternateBounds" />
          </mxGeometry>
        </mxCell>
        <mxCell id="esB0qkCkmRwVeEFs85TR-21" value="Value 8" style="connectable=0;recursiveResize=0;strokeColor=inherit;fillColor=inherit;fontStyle=0;align=center;whiteSpace=wrap;html=1;" parent="esB0qkCkmRwVeEFs85TR-19" vertex="1">
          <mxGeometry x="53" width="54" height="15" as="geometry">
            <mxRectangle width="54" height="15" as="alternateBounds" />
          </mxGeometry>
        </mxCell>
        <mxCell id="esB0qkCkmRwVeEFs85TR-22" value="Value 9" style="connectable=0;recursiveResize=0;strokeColor=inherit;fillColor=inherit;fontStyle=0;align=center;whiteSpace=wrap;html=1;" parent="esB0qkCkmRwVeEFs85TR-19" vertex="1">
          <mxGeometry x="107" width="53" height="15" as="geometry">
            <mxRectangle width="53" height="15" as="alternateBounds" />
          </mxGeometry>
        </mxCell>
        <mxCell id="esB0qkCkmRwVeEFs85TR-23" value="" style="shape=tableRow;horizontal=0;startSize=0;swimlaneHead=0;swimlaneBody=0;top=0;left=0;bottom=0;right=0;dropTarget=0;collapsible=0;recursiveResize=0;expand=0;fontStyle=1;strokeColor=inherit;fillColor=#EAF2D3;" parent="esB0qkCkmRwVeEFs85TR-6" vertex="1">
          <mxGeometry y="63" width="160" height="13" as="geometry" />
        </mxCell>
        <mxCell id="esB0qkCkmRwVeEFs85TR-24" value="Value 10" style="connectable=0;recursiveResize=0;strokeColor=inherit;fillColor=inherit;whiteSpace=wrap;html=1;" parent="esB0qkCkmRwVeEFs85TR-23" vertex="1">
          <mxGeometry width="53" height="13" as="geometry">
            <mxRectangle width="53" height="13" as="alternateBounds" />
          </mxGeometry>
        </mxCell>
        <mxCell id="esB0qkCkmRwVeEFs85TR-25" value="Value 11" style="connectable=0;recursiveResize=0;strokeColor=inherit;fillColor=inherit;whiteSpace=wrap;html=1;" parent="esB0qkCkmRwVeEFs85TR-23" vertex="1">
          <mxGeometry x="53" width="54" height="13" as="geometry">
            <mxRectangle width="54" height="13" as="alternateBounds" />
          </mxGeometry>
        </mxCell>
        <mxCell id="esB0qkCkmRwVeEFs85TR-26" value="Value 12" style="connectable=0;recursiveResize=0;strokeColor=inherit;fillColor=inherit;whiteSpace=wrap;html=1;" parent="esB0qkCkmRwVeEFs85TR-23" vertex="1">
          <mxGeometry x="107" width="53" height="13" as="geometry">
            <mxRectangle width="53" height="13" as="alternateBounds" />
          </mxGeometry>
        </mxCell>
        <mxCell id="esB0qkCkmRwVeEFs85TR-27" value="" style="endArrow=none;html=1;rounded=0;exitX=1;exitY=0.5;exitDx=0;exitDy=0;exitPerimeter=0;" parent="1" source="esB0qkCkmRwVeEFs85TR-2" edge="1">
          <mxGeometry width="50" height="50" relative="1" as="geometry">
            <mxPoint x="390" y="1850" as="sourcePoint" />
            <mxPoint x="760" y="1760" as="targetPoint" />
          </mxGeometry>
        </mxCell>
        <mxCell id="esB0qkCkmRwVeEFs85TR-28" value="" style="endArrow=none;html=1;rounded=0;" parent="1" target="esB0qkCkmRwVeEFs85TR-29" edge="1">
          <mxGeometry width="50" height="50" relative="1" as="geometry">
            <mxPoint x="760" y="1830" as="sourcePoint" />
            <mxPoint x="760" y="1760" as="targetPoint" />
          </mxGeometry>
        </mxCell>
        <mxCell id="esB0qkCkmRwVeEFs85TR-29" value="" style="sketch=0;outlineConnect=0;fontColor=#232F3E;gradientColor=none;fillColor=#8C4FFF;strokeColor=none;dashed=0;verticalLabelPosition=bottom;verticalAlign=top;align=center;html=1;fontSize=12;fontStyle=0;aspect=fixed;pointerEvents=1;shape=mxgraph.aws4.glue_databrew;" parent="1" vertex="1">
          <mxGeometry x="740" y="1714" width="40" height="40" as="geometry" />
        </mxCell>
        <mxCell id="esB0qkCkmRwVeEFs85TR-30" value="Crwaler" style="text;html=1;strokeColor=none;fillColor=none;align=center;verticalAlign=middle;whiteSpace=wrap;rounded=0;fontStyle=1" parent="1" vertex="1">
          <mxGeometry x="740" y="1680" width="60" height="30" as="geometry" />
        </mxCell>
        <mxCell id="esB0qkCkmRwVeEFs85TR-31" value="Catalogue" style="text;html=1;strokeColor=none;fillColor=none;align=center;verticalAlign=middle;whiteSpace=wrap;rounded=0;fontStyle=1" parent="1" vertex="1">
          <mxGeometry x="780.25" y="1810" width="60" height="30" as="geometry" />
        </mxCell>
        <mxCell id="esB0qkCkmRwVeEFs85TR-32" value="" style="endArrow=none;html=1;rounded=0;exitX=0.819;exitY=1.02;exitDx=0;exitDy=0;exitPerimeter=0;" parent="1" source="esB0qkCkmRwVeEFs85TR-4" edge="1">
          <mxGeometry width="50" height="50" relative="1" as="geometry">
            <mxPoint x="390" y="1850" as="sourcePoint" />
            <mxPoint x="867" y="2040" as="targetPoint" />
          </mxGeometry>
        </mxCell>
        <mxCell id="esB0qkCkmRwVeEFs85TR-33" value="Amazon SageMaker" style="sketch=0;outlineConnect=0;fontColor=#232F3E;gradientColor=none;strokeColor=#ffffff;fillColor=#232F3E;dashed=0;verticalLabelPosition=middle;verticalAlign=bottom;align=center;html=1;whiteSpace=wrap;fontSize=10;fontStyle=1;spacing=3;shape=mxgraph.aws4.productIcon;prIcon=mxgraph.aws4.sagemaker;" parent="1" vertex="1">
          <mxGeometry x="830.5" y="2040" width="80" height="110" as="geometry" />
        </mxCell>
        <mxCell id="esB0qkCkmRwVeEFs85TR-34" value="Amazon Athena" style="sketch=0;outlineConnect=0;fontColor=#232F3E;gradientColor=none;strokeColor=#ffffff;fillColor=#232F3E;dashed=0;verticalLabelPosition=middle;verticalAlign=bottom;align=center;html=1;whiteSpace=wrap;fontSize=10;fontStyle=1;spacing=3;shape=mxgraph.aws4.productIcon;prIcon=mxgraph.aws4.athena;" parent="1" vertex="1">
          <mxGeometry x="1110" y="1840" width="80" height="110" as="geometry" />
        </mxCell>
        <mxCell id="esB0qkCkmRwVeEFs85TR-35" value="" style="endArrow=classic;html=1;rounded=0;" parent="1" target="esB0qkCkmRwVeEFs85TR-34" edge="1">
          <mxGeometry width="50" height="50" relative="1" as="geometry">
            <mxPoint x="920" y="1900" as="sourcePoint" />
            <mxPoint x="560" y="1800" as="targetPoint" />
          </mxGeometry>
        </mxCell>
        <mxCell id="esB0qkCkmRwVeEFs85TR-36" value="ETL" style="text;html=1;strokeColor=none;fillColor=none;align=center;verticalAlign=middle;whiteSpace=wrap;rounded=0;fontStyle=1;fontSize=19;" parent="1" vertex="1">
          <mxGeometry x="470" y="1608" width="60" height="30" as="geometry" />
        </mxCell>
        <mxCell id="esB0qkCkmRwVeEFs85TR-37" value="Data Bricks" style="rounded=1;whiteSpace=wrap;html=1;fontStyle=1;fontSize=16;" parent="1" vertex="1">
          <mxGeometry x="433" y="2200" width="120" height="60" as="geometry" />
        </mxCell>
        <mxCell id="esB0qkCkmRwVeEFs85TR-38" value="" style="image;sketch=0;aspect=fixed;html=1;points=[];align=center;fontSize=12;image=img/lib/mscae/VM_Linux.svg;" parent="1" vertex="1">
          <mxGeometry x="250" y="2430" width="97.83" height="90" as="geometry" />
        </mxCell>
        <mxCell id="esB0qkCkmRwVeEFs85TR-39" value="" style="image;sketch=0;aspect=fixed;html=1;points=[];align=center;fontSize=12;image=img/lib/mscae/VM_Linux.svg;" parent="1" vertex="1">
          <mxGeometry x="527.1700000000001" y="2330" width="97.83" height="90" as="geometry" />
        </mxCell>
        <mxCell id="esB0qkCkmRwVeEFs85TR-40" value="" style="image;sketch=0;aspect=fixed;html=1;points=[];align=center;fontSize=12;image=img/lib/mscae/VM_Linux.svg;" parent="1" vertex="1">
          <mxGeometry x="530.0000000000001" y="2460" width="97.83" height="90" as="geometry" />
        </mxCell>
        <mxCell id="esB0qkCkmRwVeEFs85TR-41" value="" style="image;sketch=0;aspect=fixed;html=1;points=[];align=center;fontSize=12;image=img/lib/mscae/VM_Linux.svg;" parent="1" vertex="1">
          <mxGeometry x="537.1700000000001" y="2570" width="97.83" height="90" as="geometry" />
        </mxCell>
        <mxCell id="esB0qkCkmRwVeEFs85TR-42" value="" style="image;aspect=fixed;html=1;points=[];align=center;fontSize=12;image=img/lib/azure2/analytics/Azure_Databricks.svg;" parent="1" vertex="1">
          <mxGeometry x="309.4" y="2392" width="62.8" height="68" as="geometry" />
        </mxCell>
        <mxCell id="esB0qkCkmRwVeEFs85TR-43" value="" style="image;aspect=fixed;html=1;points=[];align=center;fontSize=12;image=img/lib/azure2/analytics/Azure_Databricks.svg;" parent="1" vertex="1">
          <mxGeometry x="598" y="2300" width="62.8" height="68" as="geometry" />
        </mxCell>
        <mxCell id="esB0qkCkmRwVeEFs85TR-44" value="" style="image;aspect=fixed;html=1;points=[];align=center;fontSize=12;image=img/lib/azure2/analytics/Azure_Databricks.svg;" parent="1" vertex="1">
          <mxGeometry x="607.2" y="2441" width="62.8" height="68" as="geometry" />
        </mxCell>
        <mxCell id="esB0qkCkmRwVeEFs85TR-46" value="" style="image;aspect=fixed;html=1;points=[];align=center;fontSize=12;image=img/lib/azure2/analytics/Azure_Databricks.svg;" parent="1" vertex="1">
          <mxGeometry x="598" y="2570" width="62.8" height="68" as="geometry" />
        </mxCell>
        <mxCell id="esB0qkCkmRwVeEFs85TR-47" value="Master" style="text;html=1;strokeColor=none;fillColor=none;align=center;verticalAlign=middle;whiteSpace=wrap;rounded=0;fontStyle=1;fontSize=15;" parent="1" vertex="1">
          <mxGeometry x="264" y="2530" width="60" height="30" as="geometry" />
        </mxCell>
        <mxCell id="esB0qkCkmRwVeEFs85TR-48" value="Worker1" style="text;html=1;strokeColor=none;fillColor=none;align=center;verticalAlign=middle;whiteSpace=wrap;rounded=0;fontStyle=1;fontSize=15;" parent="1" vertex="1">
          <mxGeometry x="546.0899999999999" y="2411" width="60" height="30" as="geometry" />
        </mxCell>
        <mxCell id="esB0qkCkmRwVeEFs85TR-49" value="Worker2" style="text;html=1;strokeColor=none;fillColor=none;align=center;verticalAlign=middle;whiteSpace=wrap;rounded=0;fontStyle=1;fontSize=15;" parent="1" vertex="1">
          <mxGeometry x="552.9999999999999" y="2540" width="60" height="30" as="geometry" />
        </mxCell>
        <mxCell id="esB0qkCkmRwVeEFs85TR-50" value="Worker3" style="text;html=1;strokeColor=none;fillColor=none;align=center;verticalAlign=middle;whiteSpace=wrap;rounded=0;fontStyle=1;fontSize=15;" parent="1" vertex="1">
          <mxGeometry x="556.0899999999999" y="2660" width="60" height="30" as="geometry" />
        </mxCell>
        <mxCell id="esB0qkCkmRwVeEFs85TR-51" value="" style="endArrow=classic;html=1;rounded=0;" parent="1" edge="1">
          <mxGeometry width="50" height="50" relative="1" as="geometry">
            <mxPoint x="360" y="2470" as="sourcePoint" />
            <mxPoint x="520" y="2380" as="targetPoint" />
          </mxGeometry>
        </mxCell>
        <mxCell id="esB0qkCkmRwVeEFs85TR-52" value="" style="endArrow=classic;html=1;rounded=0;" parent="1" edge="1">
          <mxGeometry width="50" height="50" relative="1" as="geometry">
            <mxPoint x="370" y="2480" as="sourcePoint" />
            <mxPoint x="500" y="2480" as="targetPoint" />
          </mxGeometry>
        </mxCell>
        <mxCell id="esB0qkCkmRwVeEFs85TR-53" value="" style="endArrow=classic;html=1;rounded=0;" parent="1" edge="1">
          <mxGeometry width="50" height="50" relative="1" as="geometry">
            <mxPoint x="360" y="2490" as="sourcePoint" />
            <mxPoint x="510" y="2600" as="targetPoint" />
          </mxGeometry>
        </mxCell>
        <mxCell id="esB0qkCkmRwVeEFs85TR-54" value="Cluster" style="text;html=1;strokeColor=none;fillColor=none;align=center;verticalAlign=middle;whiteSpace=wrap;rounded=0;fontStyle=1;fontSize=17;" parent="1" vertex="1">
          <mxGeometry x="391.4" y="2300" width="60" height="30" as="geometry" />
        </mxCell>
        <mxCell id="esB0qkCkmRwVeEFs85TR-55" value="" style="sketch=0;outlineConnect=0;fontColor=#232F3E;gradientColor=none;fillColor=#232F3D;strokeColor=none;dashed=0;verticalLabelPosition=bottom;verticalAlign=top;align=center;html=1;fontSize=12;fontStyle=0;aspect=fixed;pointerEvents=1;shape=mxgraph.aws4.user;" parent="1" vertex="1">
          <mxGeometry x="2.5" y="2436" width="78" height="78" as="geometry" />
        </mxCell>
        <mxCell id="esB0qkCkmRwVeEFs85TR-56" value="" style="shape=image;html=1;verticalAlign=top;verticalLabelPosition=bottom;labelBackgroundColor=#ffffff;imageAspect=0;aspect=fixed;image=https://cdn3.iconfinder.com/data/icons/cad-database-presentation-spreadsheet-vector-fil-2/512/19-128.png" parent="1" vertex="1">
          <mxGeometry x="56.5" y="2355.5" width="80.5" height="80.5" as="geometry" />
        </mxCell>
        <mxCell id="esB0qkCkmRwVeEFs85TR-57" value="" style="shape=image;html=1;verticalAlign=top;verticalLabelPosition=bottom;labelBackgroundColor=#ffffff;imageAspect=0;aspect=fixed;image=https://cdn3.iconfinder.com/data/icons/cad-database-presentation-spreadsheet-vector-fil-2/512/19-128.png" parent="1" vertex="1">
          <mxGeometry x="199.5" y="2360.5" width="80.5" height="80.5" as="geometry" />
        </mxCell>
        <mxCell id="esB0qkCkmRwVeEFs85TR-58" value="Normalize Data&lt;br&gt;Chhose Model - Training&lt;br&gt;Split Data" style="text;html=1;strokeColor=none;fillColor=none;align=left;verticalAlign=middle;whiteSpace=wrap;rounded=0;fontStyle=1" parent="1" vertex="1">
          <mxGeometry x="31.5" y="2650" width="358.5" height="30" as="geometry" />
        </mxCell>
        <mxCell id="esB0qkCkmRwVeEFs85TR-59" value="Normzlize" style="text;html=1;strokeColor=none;fillColor=none;align=center;verticalAlign=middle;whiteSpace=wrap;rounded=0;" parent="1" vertex="1">
          <mxGeometry x="410" y="2368" width="60" height="30" as="geometry" />
        </mxCell>
        <mxCell id="esB0qkCkmRwVeEFs85TR-60" value="Training Alog" style="text;html=1;strokeColor=none;fillColor=none;align=center;verticalAlign=middle;whiteSpace=wrap;rounded=0;" parent="1" vertex="1">
          <mxGeometry x="389.25" y="2450" width="126" height="30" as="geometry" />
        </mxCell>
        <mxCell id="esB0qkCkmRwVeEFs85TR-61" value="Split" style="text;html=1;strokeColor=none;fillColor=none;align=center;verticalAlign=middle;whiteSpace=wrap;rounded=0;" parent="1" vertex="1">
          <mxGeometry x="396" y="2510" width="126" height="30" as="geometry" />
        </mxCell>
        <mxCell id="esB0qkCkmRwVeEFs85TR-62" value="Parller" style="text;html=1;strokeColor=none;fillColor=none;align=center;verticalAlign=middle;whiteSpace=wrap;rounded=0;fontStyle=1;fontSize=17;" parent="1" vertex="1">
          <mxGeometry x="660.8" y="2250" width="60" height="30" as="geometry" />
        </mxCell>
        <mxCell id="esB0qkCkmRwVeEFs85TR-63" value="Data Bricks Online" style="text;html=1;strokeColor=none;fillColor=none;align=center;verticalAlign=middle;whiteSpace=wrap;rounded=0;fontStyle=1;fontSize=17;" parent="1" vertex="1">
          <mxGeometry x="850.5" y="2290" width="189.5" height="30" as="geometry" />
        </mxCell>
        <mxCell id="esB0qkCkmRwVeEFs85TR-64" value="AWS Data Bricks" style="text;html=1;strokeColor=none;fillColor=none;align=center;verticalAlign=middle;whiteSpace=wrap;rounded=0;fontStyle=1;fontSize=17;" parent="1" vertex="1">
          <mxGeometry x="495.25" y="2720" width="244.75" height="30" as="geometry" />
        </mxCell>
        <mxCell id="zla82kHYyhMQLEqjOBMf-1" value="Amazon SageMaker" style="sketch=0;outlineConnect=0;fontColor=#232F3E;gradientColor=none;strokeColor=#ffffff;fillColor=#232F3E;dashed=0;verticalLabelPosition=middle;verticalAlign=bottom;align=center;html=1;whiteSpace=wrap;fontSize=10;fontStyle=1;spacing=3;shape=mxgraph.aws4.productIcon;prIcon=mxgraph.aws4.sagemaker;" parent="1" vertex="1">
          <mxGeometry x="436.4" y="2860" width="70" height="85" as="geometry" />
        </mxCell>
        <mxCell id="zla82kHYyhMQLEqjOBMf-2" value="Canvas" style="rounded=0;whiteSpace=wrap;html=1;fontStyle=1;fontSize=17;" parent="1" vertex="1">
          <mxGeometry x="256" y="3000" width="120" height="40" as="geometry" />
        </mxCell>
        <mxCell id="zla82kHYyhMQLEqjOBMf-3" value="AUTOML" style="rounded=0;whiteSpace=wrap;html=1;fontStyle=1;fontSize=17;" parent="1" vertex="1">
          <mxGeometry x="444.25" y="3000" width="120" height="40" as="geometry" />
        </mxCell>
        <mxCell id="zla82kHYyhMQLEqjOBMf-4" value="Notebook" style="rounded=0;whiteSpace=wrap;html=1;fontStyle=1;fontSize=17;" parent="1" vertex="1">
          <mxGeometry x="635" y="3000" width="120" height="40" as="geometry" />
        </mxCell>
        <mxCell id="AfbSmwXtlgn2VIAXXnCX-1" value="" style="sketch=0;outlineConnect=0;fontColor=#232F3E;gradientColor=none;fillColor=#7AA116;strokeColor=none;dashed=0;verticalLabelPosition=bottom;verticalAlign=top;align=center;html=1;fontSize=12;fontStyle=0;aspect=fixed;pointerEvents=1;shape=mxgraph.aws4.bucket;" parent="1" vertex="1">
          <mxGeometry x="318" y="3280" width="75" height="78" as="geometry" />
        </mxCell>
        <mxCell id="AfbSmwXtlgn2VIAXXnCX-2" value="" style="verticalLabelPosition=bottom;shadow=0;dashed=0;align=center;html=1;verticalAlign=top;strokeWidth=1;shape=mxgraph.mockup.containers.userMale;strokeColor=#666666;strokeColor2=#008cff;" parent="1" vertex="1">
          <mxGeometry x="320" y="3120" width="74" height="50" as="geometry" />
        </mxCell>
        <mxCell id="AfbSmwXtlgn2VIAXXnCX-3" value="" style="endArrow=classic;html=1;rounded=0;exitX=0.459;exitY=0.94;exitDx=0;exitDy=0;exitPerimeter=0;" parent="1" source="AfbSmwXtlgn2VIAXXnCX-2" target="AfbSmwXtlgn2VIAXXnCX-1" edge="1">
          <mxGeometry width="50" height="50" relative="1" as="geometry">
            <mxPoint x="710" y="3540" as="sourcePoint" />
            <mxPoint x="760" y="3490" as="targetPoint" />
          </mxGeometry>
        </mxCell>
        <mxCell id="AfbSmwXtlgn2VIAXXnCX-4" value="Amazon SNS" style="sketch=0;outlineConnect=0;fontColor=#232F3E;gradientColor=none;strokeColor=#ffffff;fillColor=#232F3E;dashed=0;verticalLabelPosition=middle;verticalAlign=bottom;align=center;html=1;whiteSpace=wrap;fontSize=10;fontStyle=1;spacing=3;shape=mxgraph.aws4.productIcon;prIcon=mxgraph.aws4.sns;" parent="1" vertex="1">
          <mxGeometry x="930" y="3280" width="80" height="100" as="geometry" />
        </mxCell>
        <mxCell id="AfbSmwXtlgn2VIAXXnCX-5" value="Subscriber" style="text;html=1;strokeColor=#82b366;fillColor=#d5e8d4;align=center;verticalAlign=middle;whiteSpace=wrap;rounded=0;fontStyle=1;fontSize=15;" parent="1" vertex="1">
          <mxGeometry x="1030" y="3370" width="90" height="30" as="geometry" />
        </mxCell>
        <mxCell id="AfbSmwXtlgn2VIAXXnCX-6" value="" style="outlineConnect=0;dashed=0;verticalLabelPosition=bottom;verticalAlign=top;align=center;html=1;shape=mxgraph.aws3.email;fillColor=#D9A741;gradientColor=none;" parent="1" vertex="1">
          <mxGeometry x="1140" y="3400" width="81" height="61.5" as="geometry" />
        </mxCell>
        <mxCell id="AfbSmwXtlgn2VIAXXnCX-8" value="" style="html=1;verticalLabelPosition=bottom;align=center;labelBackgroundColor=#ffffff;verticalAlign=top;strokeWidth=2;strokeColor=#0080F0;shadow=0;dashed=0;shape=mxgraph.ios7.icons.user;" parent="1" vertex="1">
          <mxGeometry x="1340" y="3415.75" width="30" height="30" as="geometry" />
        </mxCell>
        <mxCell id="AfbSmwXtlgn2VIAXXnCX-9" value="" style="endArrow=classic;html=1;rounded=0;entryX=0;entryY=0.642;entryDx=0;entryDy=0;entryPerimeter=0;exitX=1.025;exitY=0.732;exitDx=0;exitDy=0;exitPerimeter=0;" parent="1" source="AfbSmwXtlgn2VIAXXnCX-6" target="AfbSmwXtlgn2VIAXXnCX-8" edge="1">
          <mxGeometry width="50" height="50" relative="1" as="geometry">
            <mxPoint x="710" y="3540" as="sourcePoint" />
            <mxPoint x="760" y="3490" as="targetPoint" />
          </mxGeometry>
        </mxCell>
        <mxCell id="AfbSmwXtlgn2VIAXXnCX-10" value="" style="sketch=0;outlineConnect=0;fontColor=#232F3E;gradientColor=none;fillColor=#ED7100;strokeColor=none;dashed=0;verticalLabelPosition=bottom;verticalAlign=top;align=center;html=1;fontSize=12;fontStyle=0;aspect=fixed;pointerEvents=1;shape=mxgraph.aws4.lambda_function;" parent="1" vertex="1">
          <mxGeometry x="574.75" y="3290" width="55" height="55" as="geometry" />
        </mxCell>
        <mxCell id="AfbSmwXtlgn2VIAXXnCX-11" value="" style="endArrow=classic;html=1;rounded=0;exitX=1.093;exitY=0.513;exitDx=0;exitDy=0;exitPerimeter=0;" parent="1" source="AfbSmwXtlgn2VIAXXnCX-1" edge="1">
          <mxGeometry width="50" height="50" relative="1" as="geometry">
            <mxPoint x="710" y="3540" as="sourcePoint" />
            <mxPoint x="570" y="3320" as="targetPoint" />
          </mxGeometry>
        </mxCell>
        <mxCell id="AfbSmwXtlgn2VIAXXnCX-12" value="" style="endArrow=classic;html=1;rounded=0;exitX=1.093;exitY=0.513;exitDx=0;exitDy=0;exitPerimeter=0;entryX=0;entryY=0.385;entryDx=0;entryDy=0;entryPerimeter=0;" parent="1" target="AfbSmwXtlgn2VIAXXnCX-4" edge="1">
          <mxGeometry width="50" height="50" relative="1" as="geometry">
            <mxPoint x="640.25" y="3318.5" as="sourcePoint" />
            <mxPoint x="810.25" y="3318.5" as="targetPoint" />
          </mxGeometry>
        </mxCell>
        <mxCell id="AfbSmwXtlgn2VIAXXnCX-13" value="A Data Scientist want to know when new data uploaded to s3" style="text;html=1;strokeColor=none;fillColor=none;align=left;verticalAlign=middle;whiteSpace=wrap;rounded=0;fontStyle=1;fontSize=17;" parent="1" vertex="1">
          <mxGeometry x="580.25" y="3150" width="499.75" height="30" as="geometry" />
        </mxCell>
        <mxCell id="AfbSmwXtlgn2VIAXXnCX-14" value="Amazon SQS" style="sketch=0;outlineConnect=0;fontColor=#232F3E;gradientColor=none;strokeColor=#ffffff;fillColor=#232F3E;dashed=0;verticalLabelPosition=middle;verticalAlign=bottom;align=center;html=1;whiteSpace=wrap;fontSize=10;fontStyle=1;spacing=3;shape=mxgraph.aws4.productIcon;prIcon=mxgraph.aws4.sqs;" parent="1" vertex="1">
          <mxGeometry x="640" y="3560" width="80" height="100" as="geometry" />
        </mxCell>
        <mxCell id="AfbSmwXtlgn2VIAXXnCX-15" value="Amazon.com" style="rounded=0;whiteSpace=wrap;html=1;" parent="1" vertex="1">
          <mxGeometry x="396" y="3550" width="164" height="100" as="geometry" />
        </mxCell>
        <mxCell id="AfbSmwXtlgn2VIAXXnCX-16" value="Backend" style="rounded=1;whiteSpace=wrap;html=1;" parent="1" vertex="1">
          <mxGeometry x="810" y="3560" width="179.75" height="100" as="geometry" />
        </mxCell>
        <mxCell id="AfbSmwXtlgn2VIAXXnCX-17" value="" style="endArrow=classic;html=1;rounded=0;exitX=1;exitY=0.5;exitDx=0;exitDy=0;" parent="1" source="AfbSmwXtlgn2VIAXXnCX-15" edge="1">
          <mxGeometry width="50" height="50" relative="1" as="geometry">
            <mxPoint x="710" y="3440" as="sourcePoint" />
            <mxPoint x="630" y="3600" as="targetPoint" />
          </mxGeometry>
        </mxCell>
        <mxCell id="AfbSmwXtlgn2VIAXXnCX-18" value="" style="endArrow=classic;html=1;rounded=0;exitX=1;exitY=0.5;exitDx=0;exitDy=0;" parent="1" edge="1">
          <mxGeometry width="50" height="50" relative="1" as="geometry">
            <mxPoint x="730" y="3599.5" as="sourcePoint" />
            <mxPoint x="800" y="3599.5" as="targetPoint" />
          </mxGeometry>
        </mxCell>
        <mxCell id="AfbSmwXtlgn2VIAXXnCX-19" value="Temprory Storage Services" style="text;html=1;strokeColor=none;fillColor=none;align=center;verticalAlign=middle;whiteSpace=wrap;rounded=0;" parent="1" vertex="1">
          <mxGeometry x="580.25" y="3477" width="165" height="30" as="geometry" />
        </mxCell>
        <mxCell id="AfbSmwXtlgn2VIAXXnCX-20" value="" style="sketch=0;outlineConnect=0;fontColor=#232F3E;gradientColor=none;fillColor=#7AA116;strokeColor=none;dashed=0;verticalLabelPosition=bottom;verticalAlign=top;align=center;html=1;fontSize=12;fontStyle=0;aspect=fixed;pointerEvents=1;shape=mxgraph.aws4.bucket;" parent="1" vertex="1">
          <mxGeometry x="170" y="4060" width="75" height="78" as="geometry" />
        </mxCell>
        <mxCell id="AfbSmwXtlgn2VIAXXnCX-21" value="" style="verticalLabelPosition=bottom;shadow=0;dashed=0;align=center;html=1;verticalAlign=top;strokeWidth=1;shape=mxgraph.mockup.containers.userMale;strokeColor=#666666;strokeColor2=#008cff;" parent="1" vertex="1">
          <mxGeometry x="172" y="3900" width="74" height="50" as="geometry" />
        </mxCell>
        <mxCell id="AfbSmwXtlgn2VIAXXnCX-22" value="" style="endArrow=classic;html=1;rounded=0;exitX=0.459;exitY=0.94;exitDx=0;exitDy=0;exitPerimeter=0;" parent="1" source="AfbSmwXtlgn2VIAXXnCX-21" target="AfbSmwXtlgn2VIAXXnCX-20" edge="1">
          <mxGeometry width="50" height="50" relative="1" as="geometry">
            <mxPoint x="562" y="4320" as="sourcePoint" />
            <mxPoint x="612" y="4270" as="targetPoint" />
          </mxGeometry>
        </mxCell>
        <mxCell id="AfbSmwXtlgn2VIAXXnCX-28" value="" style="sketch=0;outlineConnect=0;fontColor=#232F3E;gradientColor=none;fillColor=#ED7100;strokeColor=none;dashed=0;verticalLabelPosition=bottom;verticalAlign=top;align=center;html=1;fontSize=12;fontStyle=0;aspect=fixed;pointerEvents=1;shape=mxgraph.aws4.lambda_function;" parent="1" vertex="1">
          <mxGeometry x="426.75" y="4070" width="55" height="55" as="geometry" />
        </mxCell>
        <mxCell id="AfbSmwXtlgn2VIAXXnCX-29" value="" style="endArrow=classic;html=1;rounded=0;exitX=1.093;exitY=0.513;exitDx=0;exitDy=0;exitPerimeter=0;" parent="1" source="AfbSmwXtlgn2VIAXXnCX-20" edge="1">
          <mxGeometry width="50" height="50" relative="1" as="geometry">
            <mxPoint x="562" y="4320" as="sourcePoint" />
            <mxPoint x="422" y="4100" as="targetPoint" />
          </mxGeometry>
        </mxCell>
        <mxCell id="AfbSmwXtlgn2VIAXXnCX-30" value="" style="endArrow=classic;html=1;rounded=0;exitX=1.093;exitY=0.513;exitDx=0;exitDy=0;exitPerimeter=0;entryX=0;entryY=0.385;entryDx=0;entryDy=0;entryPerimeter=0;" parent="1" edge="1">
          <mxGeometry width="50" height="50" relative="1" as="geometry">
            <mxPoint x="492.25" y="4098.5" as="sourcePoint" />
            <mxPoint x="782" y="4098.5" as="targetPoint" />
          </mxGeometry>
        </mxCell>
        <mxCell id="AfbSmwXtlgn2VIAXXnCX-31" value="A Data Scientist want to know when new data uploaded to s3" style="text;html=1;strokeColor=none;fillColor=none;align=left;verticalAlign=middle;whiteSpace=wrap;rounded=0;fontStyle=1;fontSize=17;" parent="1" vertex="1">
          <mxGeometry x="432.25" y="3930" width="499.75" height="30" as="geometry" />
        </mxCell>
        <mxCell id="AfbSmwXtlgn2VIAXXnCX-32" value="Amazon SQS" style="sketch=0;outlineConnect=0;fontColor=#232F3E;gradientColor=none;strokeColor=#ffffff;fillColor=#232F3E;dashed=0;verticalLabelPosition=middle;verticalAlign=bottom;align=center;html=1;whiteSpace=wrap;fontSize=10;fontStyle=1;spacing=3;shape=mxgraph.aws4.productIcon;prIcon=mxgraph.aws4.sqs;" parent="1" vertex="1">
          <mxGeometry x="790" y="4060" width="80" height="100" as="geometry" />
        </mxCell>
        <mxCell id="AfbSmwXtlgn2VIAXXnCX-33" value="Amazon SageMaker" style="sketch=0;outlineConnect=0;fontColor=#232F3E;gradientColor=none;strokeColor=#ffffff;fillColor=#232F3E;dashed=0;verticalLabelPosition=middle;verticalAlign=bottom;align=center;html=1;whiteSpace=wrap;fontSize=10;fontStyle=1;spacing=3;shape=mxgraph.aws4.productIcon;prIcon=mxgraph.aws4.sagemaker;" parent="1" vertex="1">
          <mxGeometry x="1070" y="4060" width="80" height="110" as="geometry" />
        </mxCell>
        <mxCell id="AfbSmwXtlgn2VIAXXnCX-34" value="" style="endArrow=classic;html=1;rounded=0;entryX=0;entryY=0.455;entryDx=0;entryDy=0;entryPerimeter=0;" parent="1" source="AfbSmwXtlgn2VIAXXnCX-32" target="AfbSmwXtlgn2VIAXXnCX-33" edge="1">
          <mxGeometry width="50" height="50" relative="1" as="geometry">
            <mxPoint x="710" y="4140" as="sourcePoint" />
            <mxPoint x="760" y="4090" as="targetPoint" />
          </mxGeometry>
        </mxCell>
        <mxCell id="AfbSmwXtlgn2VIAXXnCX-35" value="Define Objective" style="ellipse;whiteSpace=wrap;html=1;aspect=fixed;fontStyle=1;fontSize=15;fontColor=#FF0000;" parent="1" vertex="1">
          <mxGeometry x="148" y="4220" width="110" height="110" as="geometry" />
        </mxCell>
        <mxCell id="AfbSmwXtlgn2VIAXXnCX-36" value="Predication / Predictive Model" style="text;html=1;strokeColor=#6c8ebf;fillColor=#dae8fc;align=center;verticalAlign=middle;whiteSpace=wrap;rounded=0;fontStyle=1" parent="1" vertex="1">
          <mxGeometry x="144" y="4350" width="120" height="30" as="geometry" />
        </mxCell>
        <mxCell id="AfbSmwXtlgn2VIAXXnCX-37" value="" style="shape=flexArrow;endArrow=classic;html=1;rounded=0;" parent="1" edge="1">
          <mxGeometry width="50" height="50" relative="1" as="geometry">
            <mxPoint x="260" y="4270" as="sourcePoint" />
            <mxPoint x="340" y="4270" as="targetPoint" />
          </mxGeometry>
        </mxCell>
        <mxCell id="AfbSmwXtlgn2VIAXXnCX-38" value="Collect Data" style="ellipse;whiteSpace=wrap;html=1;aspect=fixed;fontStyle=1;fontSize=15;fontColor=#FF0000;" parent="1" vertex="1">
          <mxGeometry x="340" y="4210" width="110" height="110" as="geometry" />
        </mxCell>
        <mxCell id="AfbSmwXtlgn2VIAXXnCX-39" value="Prepare Data" style="ellipse;whiteSpace=wrap;html=1;aspect=fixed;fontStyle=1;fontSize=15;fontColor=#FF0000;" parent="1" vertex="1">
          <mxGeometry x="496.09000000000003" y="4210" width="110" height="110" as="geometry" />
        </mxCell>
        <mxCell id="AfbSmwXtlgn2VIAXXnCX-40" value="" style="shape=flexArrow;endArrow=classic;html=1;rounded=0;entryX=0;entryY=0.5;entryDx=0;entryDy=0;" parent="1" target="AfbSmwXtlgn2VIAXXnCX-39" edge="1">
          <mxGeometry width="50" height="50" relative="1" as="geometry">
            <mxPoint x="451.4" y="4264.5" as="sourcePoint" />
            <mxPoint x="531.4" y="4264.5" as="targetPoint" />
          </mxGeometry>
        </mxCell>
        <mxCell id="AfbSmwXtlgn2VIAXXnCX-41" value="Normalization / Transformation" style="text;html=1;strokeColor=#6c8ebf;fillColor=#dae8fc;align=center;verticalAlign=middle;whiteSpace=wrap;rounded=0;fontStyle=1" parent="1" vertex="1">
          <mxGeometry x="486.09" y="4320" width="120" height="30" as="geometry" />
        </mxCell>
        <mxCell id="AfbSmwXtlgn2VIAXXnCX-42" value="Develop Model&lt;br&gt;Algorithm" style="ellipse;whiteSpace=wrap;html=1;aspect=fixed;fontStyle=1;fontSize=15;fontColor=#FF0000;" parent="1" vertex="1">
          <mxGeometry x="665" y="4220" width="110" height="110" as="geometry" />
        </mxCell>
        <mxCell id="AfbSmwXtlgn2VIAXXnCX-43" value="" style="shape=flexArrow;endArrow=classic;html=1;rounded=0;entryX=0;entryY=0.5;entryDx=0;entryDy=0;" parent="1" edge="1">
          <mxGeometry width="50" height="50" relative="1" as="geometry">
            <mxPoint x="613" y="4264.5" as="sourcePoint" />
            <mxPoint x="657.6" y="4265" as="targetPoint" />
          </mxGeometry>
        </mxCell>
        <mxCell id="AfbSmwXtlgn2VIAXXnCX-44" value="" style="endArrow=none;html=1;rounded=0;" parent="1" edge="1">
          <mxGeometry width="50" height="50" relative="1" as="geometry">
            <mxPoint x="560" y="4440" as="sourcePoint" />
            <mxPoint x="687.75" y="4330" as="targetPoint" />
          </mxGeometry>
        </mxCell>
        <mxCell id="AfbSmwXtlgn2VIAXXnCX-45" value="" style="endArrow=none;html=1;rounded=0;" parent="1" edge="1">
          <mxGeometry width="50" height="50" relative="1" as="geometry">
            <mxPoint x="880" y="4440" as="sourcePoint" />
            <mxPoint x="757.5" y="4330" as="targetPoint" />
          </mxGeometry>
        </mxCell>
        <mxCell id="AfbSmwXtlgn2VIAXXnCX-46" value="Task Driven" style="text;html=1;strokeColor=none;fillColor=none;align=center;verticalAlign=middle;whiteSpace=wrap;rounded=0;rotation=-40;fontStyle=1" parent="1" vertex="1">
          <mxGeometry x="556.27" y="4358.98" width="87" height="50" as="geometry" />
        </mxCell>
        <mxCell id="AfbSmwXtlgn2VIAXXnCX-47" value="Pre Categorized data" style="text;html=1;strokeColor=#6c8ebf;fillColor=#dae8fc;align=center;verticalAlign=middle;whiteSpace=wrap;rounded=0;fontStyle=1" parent="1" vertex="1">
          <mxGeometry x="499" y="4440" width="120" height="30" as="geometry" />
        </mxCell>
        <mxCell id="AfbSmwXtlgn2VIAXXnCX-48" value="Supervised Learning" style="rounded=1;whiteSpace=wrap;html=1;" parent="1" vertex="1">
          <mxGeometry x="499" y="4480" width="120" height="60" as="geometry" />
        </mxCell>
        <mxCell id="AfbSmwXtlgn2VIAXXnCX-49" value="" style="endArrow=classic;html=1;rounded=0;" parent="1" edge="1">
          <mxGeometry width="50" height="50" relative="1" as="geometry">
            <mxPoint x="550" y="4550" as="sourcePoint" />
            <mxPoint x="460" y="4610" as="targetPoint" />
          </mxGeometry>
        </mxCell>
        <mxCell id="AfbSmwXtlgn2VIAXXnCX-50" value="" style="endArrow=classic;html=1;rounded=0;" parent="1" edge="1">
          <mxGeometry width="50" height="50" relative="1" as="geometry">
            <mxPoint x="560" y="4550" as="sourcePoint" />
            <mxPoint x="640" y="4610" as="targetPoint" />
          </mxGeometry>
        </mxCell>
        <mxCell id="AfbSmwXtlgn2VIAXXnCX-51" value="Classification" style="text;html=1;strokeColor=none;fillColor=none;align=center;verticalAlign=middle;whiteSpace=wrap;rounded=0;fontStyle=1;fontSize=14;" parent="1" vertex="1">
          <mxGeometry x="435.25" y="4610" width="60" height="30" as="geometry" />
        </mxCell>
        <mxCell id="AfbSmwXtlgn2VIAXXnCX-52" value="Regression" style="text;html=1;strokeColor=none;fillColor=none;align=center;verticalAlign=middle;whiteSpace=wrap;rounded=0;fontStyle=1;fontSize=14;" parent="1" vertex="1">
          <mxGeometry x="607.2" y="4610" width="60" height="30" as="geometry" />
        </mxCell>
        <mxCell id="AfbSmwXtlgn2VIAXXnCX-53" value="Fraud Detection" style="text;html=1;strokeColor=none;fillColor=none;align=center;verticalAlign=middle;whiteSpace=wrap;rounded=0;fontStyle=1;fontColor=#FF0000;" parent="1" vertex="1">
          <mxGeometry x="399.25" y="4646" width="116" height="30" as="geometry" />
        </mxCell>
        <mxCell id="AfbSmwXtlgn2VIAXXnCX-54" value="Marketing Forecast" style="text;html=1;strokeColor=none;fillColor=none;align=center;verticalAlign=middle;whiteSpace=wrap;rounded=0;fontStyle=1;fontColor=#FF0000;" parent="1" vertex="1">
          <mxGeometry x="574.75" y="4646" width="116" height="30" as="geometry" />
        </mxCell>
        <mxCell id="AfbSmwXtlgn2VIAXXnCX-55" value="Unlabelled&amp;nbsp;" style="text;html=1;strokeColor=#6c8ebf;fillColor=#dae8fc;align=center;verticalAlign=middle;whiteSpace=wrap;rounded=0;fontStyle=1" parent="1" vertex="1">
          <mxGeometry x="810" y="4440" width="120" height="30" as="geometry" />
        </mxCell>
        <mxCell id="AfbSmwXtlgn2VIAXXnCX-56" value="Supervised Learning" style="rounded=1;whiteSpace=wrap;html=1;" parent="1" vertex="1">
          <mxGeometry x="800" y="4480" width="120" height="60" as="geometry" />
        </mxCell>
        <mxCell id="AfbSmwXtlgn2VIAXXnCX-57" value="" style="endArrow=classic;html=1;rounded=0;" parent="1" edge="1">
          <mxGeometry width="50" height="50" relative="1" as="geometry">
            <mxPoint x="875.5" y="4550" as="sourcePoint" />
            <mxPoint x="785.5" y="4610" as="targetPoint" />
          </mxGeometry>
        </mxCell>
        <mxCell id="AfbSmwXtlgn2VIAXXnCX-58" value="" style="endArrow=classic;html=1;rounded=0;" parent="1" edge="1">
          <mxGeometry width="50" height="50" relative="1" as="geometry">
            <mxPoint x="885.5" y="4550" as="sourcePoint" />
            <mxPoint x="965.5" y="4610" as="targetPoint" />
          </mxGeometry>
        </mxCell>
        <mxCell id="AfbSmwXtlgn2VIAXXnCX-59" value="Clsutring" style="text;html=1;strokeColor=none;fillColor=none;align=center;verticalAlign=middle;whiteSpace=wrap;rounded=0;fontStyle=1;fontSize=14;" parent="1" vertex="1">
          <mxGeometry x="760.75" y="4610" width="60" height="30" as="geometry" />
        </mxCell>
        <mxCell id="AfbSmwXtlgn2VIAXXnCX-60" value="Association" style="text;html=1;strokeColor=none;fillColor=none;align=center;verticalAlign=middle;whiteSpace=wrap;rounded=0;fontStyle=1;fontSize=14;" parent="1" vertex="1">
          <mxGeometry x="932.7" y="4610" width="60" height="30" as="geometry" />
        </mxCell>
        <mxCell id="AfbSmwXtlgn2VIAXXnCX-61" value="Target Marketing" style="text;html=1;strokeColor=none;fillColor=none;align=center;verticalAlign=middle;whiteSpace=wrap;rounded=0;fontStyle=1;fontColor=#FF0000;" parent="1" vertex="1">
          <mxGeometry x="724.75" y="4646" width="116" height="30" as="geometry" />
        </mxCell>
        <mxCell id="AfbSmwXtlgn2VIAXXnCX-62" value="Customer Recommendation" style="text;html=1;strokeColor=none;fillColor=none;align=center;verticalAlign=middle;whiteSpace=wrap;rounded=0;fontStyle=1;fontColor=#FF0000;" parent="1" vertex="1">
          <mxGeometry x="900.25" y="4646" width="116" height="30" as="geometry" />
        </mxCell>
        <mxCell id="AfbSmwXtlgn2VIAXXnCX-63" value="Data Driven" style="text;html=1;strokeColor=none;fillColor=none;align=center;verticalAlign=middle;whiteSpace=wrap;rounded=0;rotation=45;fontStyle=1" parent="1" vertex="1">
          <mxGeometry x="783" y="4340" width="87" height="50" as="geometry" />
        </mxCell>
        <mxCell id="AfbSmwXtlgn2VIAXXnCX-64" value="" style="shape=flexArrow;endArrow=classic;html=1;rounded=0;entryX=0;entryY=0.5;entryDx=0;entryDy=0;" parent="1" edge="1">
          <mxGeometry width="50" height="50" relative="1" as="geometry">
            <mxPoint x="795.65" y="4264.5" as="sourcePoint" />
            <mxPoint x="840.25" y="4265" as="targetPoint" />
          </mxGeometry>
        </mxCell>
        <mxCell id="AfbSmwXtlgn2VIAXXnCX-65" value="Develop Training Model" style="ellipse;whiteSpace=wrap;html=1;aspect=fixed;fontStyle=1;fontSize=15;fontColor=#FF0000;" parent="1" vertex="1">
          <mxGeometry x="850.5" y="4210" width="110" height="110" as="geometry" />
        </mxCell>
        <mxCell id="AfbSmwXtlgn2VIAXXnCX-66" value="Publish the Trained Model" style="ellipse;whiteSpace=wrap;html=1;aspect=fixed;fontStyle=1;fontSize=15;fontColor=#FF0000;" parent="1" vertex="1">
          <mxGeometry x="1000" y="4210" width="110" height="110" as="geometry" />
        </mxCell>
        <mxCell id="AfbSmwXtlgn2VIAXXnCX-68" value="" style="shape=flexArrow;endArrow=classic;html=1;rounded=0;entryX=0;entryY=0.5;entryDx=0;entryDy=0;" parent="1" edge="1">
          <mxGeometry width="50" height="50" relative="1" as="geometry">
            <mxPoint x="955.4" y="4264.5" as="sourcePoint" />
            <mxPoint x="1000" y="4265" as="targetPoint" />
          </mxGeometry>
        </mxCell>
        <mxCell id="AfbSmwXtlgn2VIAXXnCX-69" value="" style="shape=flexArrow;endArrow=classic;html=1;rounded=0;entryX=0;entryY=0.5;entryDx=0;entryDy=0;" parent="1" edge="1">
          <mxGeometry width="50" height="50" relative="1" as="geometry">
            <mxPoint x="1120" y="4264.5" as="sourcePoint" />
            <mxPoint x="1164.6" y="4265" as="targetPoint" />
          </mxGeometry>
        </mxCell>
        <mxCell id="AfbSmwXtlgn2VIAXXnCX-70" value="Consume" style="ellipse;whiteSpace=wrap;html=1;aspect=fixed;fontStyle=1;fontSize=15;fontColor=#FF0000;" parent="1" vertex="1">
          <mxGeometry x="1170" y="4210" width="110" height="110" as="geometry" />
        </mxCell>
        <mxCell id="AfbSmwXtlgn2VIAXXnCX-71" value="" style="endArrow=classic;html=1;rounded=0;exitX=0.309;exitY=0.982;exitDx=0;exitDy=0;exitPerimeter=0;" parent="1" source="AfbSmwXtlgn2VIAXXnCX-70" edge="1">
          <mxGeometry width="50" height="50" relative="1" as="geometry">
            <mxPoint x="1191" y="4400" as="sourcePoint" />
            <mxPoint x="1160" y="4380" as="targetPoint" />
          </mxGeometry>
        </mxCell>
        <mxCell id="AfbSmwXtlgn2VIAXXnCX-72" value="" style="endArrow=classic;html=1;rounded=0;exitX=0.309;exitY=0.982;exitDx=0;exitDy=0;exitPerimeter=0;" parent="1" edge="1">
          <mxGeometry width="50" height="50" relative="1" as="geometry">
            <mxPoint x="1247" y="4318" as="sourcePoint" />
            <mxPoint x="1290" y="4380" as="targetPoint" />
          </mxGeometry>
        </mxCell>
        <mxCell id="AfbSmwXtlgn2VIAXXnCX-73" value="Infrencing" style="text;html=1;strokeColor=#6c8ebf;fillColor=#dae8fc;align=center;verticalAlign=middle;whiteSpace=wrap;rounded=0;fontStyle=1" parent="1" vertex="1">
          <mxGeometry x="1100" y="4390" width="120" height="30" as="geometry" />
        </mxCell>
        <mxCell id="AfbSmwXtlgn2VIAXXnCX-74" value="Batch" style="text;html=1;strokeColor=#6c8ebf;fillColor=#dae8fc;align=center;verticalAlign=middle;whiteSpace=wrap;rounded=0;fontStyle=1" parent="1" vertex="1">
          <mxGeometry x="1241" y="4390" width="120" height="30" as="geometry" />
        </mxCell>
        <mxCell id="AfbSmwXtlgn2VIAXXnCX-75" value="" style="rhombus;whiteSpace=wrap;html=1;" parent="1" vertex="1">
          <mxGeometry x="607.2" y="4740" width="152.8" height="150" as="geometry" />
        </mxCell>
        <mxCell id="AfbSmwXtlgn2VIAXXnCX-76" value="Data" style="text;html=1;strokeColor=none;fillColor=none;align=center;verticalAlign=middle;whiteSpace=wrap;rounded=0;" parent="1" vertex="1">
          <mxGeometry x="653.6" y="4800" width="60" height="30" as="geometry" />
        </mxCell>
        <mxCell id="AfbSmwXtlgn2VIAXXnCX-77" value="" style="endArrow=classic;html=1;rounded=0;exitX=0.5;exitY=1;exitDx=0;exitDy=0;" parent="1" source="AfbSmwXtlgn2VIAXXnCX-75" edge="1">
          <mxGeometry width="50" height="50" relative="1" as="geometry">
            <mxPoint x="710" y="5080" as="sourcePoint" />
            <mxPoint x="680" y="4960" as="targetPoint" />
          </mxGeometry>
        </mxCell>
        <mxCell id="AfbSmwXtlgn2VIAXXnCX-78" value="Clean Data" style="rounded=1;whiteSpace=wrap;html=1;" parent="1" vertex="1">
          <mxGeometry x="629.75" y="4960" width="120" height="60" as="geometry" />
        </mxCell>
        <mxCell id="AfbSmwXtlgn2VIAXXnCX-79" value="80:20" style="rounded=1;whiteSpace=wrap;html=1;" parent="1" vertex="1">
          <mxGeometry x="630.8" y="5050" width="120" height="60" as="geometry" />
        </mxCell>
        <mxCell id="AfbSmwXtlgn2VIAXXnCX-80" value="" style="endArrow=classic;html=1;rounded=0;" parent="1" edge="1">
          <mxGeometry width="50" height="50" relative="1" as="geometry">
            <mxPoint x="685" y="5110" as="sourcePoint" />
            <mxPoint x="650" y="5170" as="targetPoint" />
          </mxGeometry>
        </mxCell>
        <mxCell id="AfbSmwXtlgn2VIAXXnCX-81" value="Training" style="rounded=1;whiteSpace=wrap;html=1;" parent="1" vertex="1">
          <mxGeometry x="607.2" y="5150" width="120" height="60" as="geometry" />
        </mxCell>
        <mxCell id="AfbSmwXtlgn2VIAXXnCX-82" value="Training" style="rounded=1;whiteSpace=wrap;html=1;" parent="1" vertex="1">
          <mxGeometry x="790.5" y="5220" width="120" height="60" as="geometry" />
        </mxCell>
        <mxCell id="AfbSmwXtlgn2VIAXXnCX-83" value="" style="endArrow=classic;html=1;rounded=0;entryX=0.346;entryY=-0.05;entryDx=0;entryDy=0;entryPerimeter=0;" parent="1" target="AfbSmwXtlgn2VIAXXnCX-82" edge="1">
          <mxGeometry width="50" height="50" relative="1" as="geometry">
            <mxPoint x="720" y="5110" as="sourcePoint" />
            <mxPoint x="685" y="5170" as="targetPoint" />
          </mxGeometry>
        </mxCell>
        <mxCell id="AfbSmwXtlgn2VIAXXnCX-84" value="" style="outlineConnect=0;dashed=0;verticalLabelPosition=bottom;verticalAlign=top;align=center;html=1;shape=mxgraph.aws3.rds;fillColor=#2E73B8;gradientColor=none;" parent="1" vertex="1">
          <mxGeometry x="596.75" y="5400" width="72" height="81" as="geometry" />
        </mxCell>
        <mxCell id="AfbSmwXtlgn2VIAXXnCX-85" value="Oracle" style="text;html=1;strokeColor=#6c8ebf;fillColor=#dae8fc;align=center;verticalAlign=middle;whiteSpace=wrap;rounded=0;fontStyle=1;fontSize=16;" parent="1" vertex="1">
          <mxGeometry x="366.75" y="5490" width="60" height="30" as="geometry" />
        </mxCell>
        <mxCell id="AfbSmwXtlgn2VIAXXnCX-86" value="MSSQL" style="text;html=1;strokeColor=#6c8ebf;fillColor=#dae8fc;align=center;verticalAlign=middle;whiteSpace=wrap;rounded=0;fontStyle=1;fontSize=16;" parent="1" vertex="1">
          <mxGeometry x="474" y="5490" width="60" height="30" as="geometry" />
        </mxCell>
        <mxCell id="AfbSmwXtlgn2VIAXXnCX-87" value="mySQL" style="text;html=1;strokeColor=#6c8ebf;fillColor=#dae8fc;align=center;verticalAlign=middle;whiteSpace=wrap;rounded=0;fontStyle=1;fontSize=16;" parent="1" vertex="1">
          <mxGeometry x="574.75" y="5490" width="60" height="30" as="geometry" />
        </mxCell>
        <mxCell id="AfbSmwXtlgn2VIAXXnCX-88" value="PostgressSQL" style="text;html=1;strokeColor=#6c8ebf;fillColor=#dae8fc;align=center;verticalAlign=middle;whiteSpace=wrap;rounded=0;fontStyle=1;fontSize=16;" parent="1" vertex="1">
          <mxGeometry x="682.5" y="5490" width="127.5" height="30" as="geometry" />
        </mxCell>
        <mxCell id="AfbSmwXtlgn2VIAXXnCX-89" value="6 Different Engine" style="text;html=1;strokeColor=none;fillColor=none;align=center;verticalAlign=middle;whiteSpace=wrap;rounded=0;fontStyle=1" parent="1" vertex="1">
          <mxGeometry x="530" y="5560" width="171" height="30" as="geometry" />
        </mxCell>
        <mxCell id="dl5P8ZBCiNwqx4PGUhv4-1" value="Model Development" style="rounded=0;whiteSpace=wrap;html=1;" parent="1" vertex="1">
          <mxGeometry x="40" y="5720" width="120" height="60" as="geometry" />
        </mxCell>
        <mxCell id="dl5P8ZBCiNwqx4PGUhv4-2" value="Deployment of Model" style="rounded=0;whiteSpace=wrap;html=1;" parent="1" vertex="1">
          <mxGeometry x="238.91" y="5720" width="120" height="60" as="geometry" />
        </mxCell>
        <mxCell id="dl5P8ZBCiNwqx4PGUhv4-3" value="Consumption of Model" style="rounded=0;whiteSpace=wrap;html=1;" parent="1" vertex="1">
          <mxGeometry x="652.5" y="5715" width="120" height="60" as="geometry" />
        </mxCell>
        <mxCell id="dl5P8ZBCiNwqx4PGUhv4-4" value="Local Machine" style="text;html=1;strokeColor=none;fillColor=none;align=center;verticalAlign=middle;whiteSpace=wrap;rounded=0;fontStyle=1" parent="1" vertex="1">
          <mxGeometry x="52" y="5690" width="92" height="30" as="geometry" />
        </mxCell>
        <mxCell id="dl5P8ZBCiNwqx4PGUhv4-5" value="Sagemaker" style="text;html=1;strokeColor=none;fillColor=none;align=center;verticalAlign=middle;whiteSpace=wrap;rounded=0;fontStyle=1" parent="1" vertex="1">
          <mxGeometry x="254" y="5690" width="92" height="30" as="geometry" />
        </mxCell>
        <mxCell id="dl5P8ZBCiNwqx4PGUhv4-6" value="Local Machine/Azure /AWS" style="text;html=1;strokeColor=none;fillColor=none;align=center;verticalAlign=middle;whiteSpace=wrap;rounded=0;fontStyle=1" parent="1" vertex="1">
          <mxGeometry x="630.8" y="5685.5" width="173.25" height="30" as="geometry" />
        </mxCell>
        <mxCell id="dl5P8ZBCiNwqx4PGUhv4-7" value="" style="endArrow=classic;html=1;rounded=0;entryX=0.145;entryY=0.855;entryDx=0;entryDy=0;entryPerimeter=0;" parent="1" target="dl5P8ZBCiNwqx4PGUhv4-9" edge="1">
          <mxGeometry width="50" height="50" relative="1" as="geometry">
            <mxPoint x="360" y="5750" as="sourcePoint" />
            <mxPoint x="580" y="5750" as="targetPoint" />
          </mxGeometry>
        </mxCell>
        <mxCell id="dl5P8ZBCiNwqx4PGUhv4-8" value="Http URL ( endpoint)" style="text;html=1;strokeColor=none;fillColor=none;align=center;verticalAlign=middle;whiteSpace=wrap;rounded=0;rotation=-30;" parent="1" vertex="1">
          <mxGeometry x="347.83" y="5730" width="128" height="30" as="geometry" />
        </mxCell>
        <mxCell id="dl5P8ZBCiNwqx4PGUhv4-9" value="" style="outlineConnect=0;dashed=0;verticalLabelPosition=bottom;verticalAlign=top;align=center;html=1;shape=mxgraph.aws3.lambda_function;fillColor=#F58534;gradientColor=none;" parent="1" vertex="1">
          <mxGeometry x="415.25" y="5690" width="39" height="32" as="geometry" />
        </mxCell>
        <mxCell id="dl5P8ZBCiNwqx4PGUhv4-10" value="" style="outlineConnect=0;dashed=0;verticalLabelPosition=bottom;verticalAlign=top;align=center;html=1;shape=mxgraph.aws3.elastic_transcoder;fillColor=#D9A741;gradientColor=none;" parent="1" vertex="1">
          <mxGeometry x="516.75" y="5679" width="36.5" height="43" as="geometry" />
        </mxCell>
        <mxCell id="dl5P8ZBCiNwqx4PGUhv4-11" value="" style="endArrow=classic;html=1;rounded=0;" parent="1" target="dl5P8ZBCiNwqx4PGUhv4-10" edge="1">
          <mxGeometry width="50" height="50" relative="1" as="geometry">
            <mxPoint x="456.63" y="5703" as="sourcePoint" />
            <mxPoint x="517.63" y="5670" as="targetPoint" />
          </mxGeometry>
        </mxCell>
        <mxCell id="dl5P8ZBCiNwqx4PGUhv4-12" value="Http URL ( Rest API)" style="text;html=1;strokeColor=none;fillColor=none;align=center;verticalAlign=middle;whiteSpace=wrap;rounded=0;rotation=0;" parent="1" vertex="1">
          <mxGeometry x="551" y="5670" width="128" height="30" as="geometry" />
        </mxCell>
        <mxCell id="dl5P8ZBCiNwqx4PGUhv4-13" value="" style="endArrow=classic;html=1;rounded=0;entryX=0;entryY=0.75;entryDx=0;entryDy=0;" parent="1" target="dl5P8ZBCiNwqx4PGUhv4-6" edge="1">
          <mxGeometry width="50" height="50" relative="1" as="geometry">
            <mxPoint x="560" y="5710" as="sourcePoint" />
            <mxPoint x="580" y="5890" as="targetPoint" />
          </mxGeometry>
        </mxCell>
        <mxCell id="dl5P8ZBCiNwqx4PGUhv4-14" value="" style="shape=flexArrow;endArrow=classic;html=1;rounded=0;exitX=1.012;exitY=0.427;exitDx=0;exitDy=0;exitPerimeter=0;" parent="1" source="dl5P8ZBCiNwqx4PGUhv4-1" edge="1">
          <mxGeometry width="50" height="50" relative="1" as="geometry">
            <mxPoint x="530" y="5940" as="sourcePoint" />
            <mxPoint x="230" y="5746" as="targetPoint" />
          </mxGeometry>
        </mxCell>
        <mxCell id="dl5P8ZBCiNwqx4PGUhv4-15" value="" style="outlineConnect=0;dashed=0;verticalLabelPosition=bottom;verticalAlign=top;align=center;html=1;shape=mxgraph.aws3.lambda_function;fillColor=#F58534;gradientColor=none;" parent="1" vertex="1">
          <mxGeometry x="285" y="5880" width="65" height="70" as="geometry" />
        </mxCell>
        <mxCell id="dl5P8ZBCiNwqx4PGUhv4-16" value="" style="verticalLabelPosition=bottom;html=1;verticalAlign=top;align=center;strokeColor=none;fillColor=#00BEF2;shape=mxgraph.azure.code_file;pointerEvents=1;" parent="1" vertex="1">
          <mxGeometry x="322.5" y="5860" width="47.5" height="50" as="geometry" />
        </mxCell>
        <mxCell id="dl5P8ZBCiNwqx4PGUhv4-17" value="" style="outlineConnect=0;dashed=0;verticalLabelPosition=bottom;verticalAlign=top;align=center;html=1;shape=mxgraph.aws3.elastic_transcoder;fillColor=#D9A741;gradientColor=none;" parent="1" vertex="1">
          <mxGeometry x="470.67" y="5880" width="66.5" height="76.5" as="geometry" />
        </mxCell>
        <mxCell id="dl5P8ZBCiNwqx4PGUhv4-18" value="" style="endArrow=classic;html=1;rounded=0;exitX=1;exitY=0.5;exitDx=0;exitDy=0;exitPerimeter=0;" parent="1" source="dl5P8ZBCiNwqx4PGUhv4-15" target="dl5P8ZBCiNwqx4PGUhv4-17" edge="1">
          <mxGeometry width="50" height="50" relative="1" as="geometry">
            <mxPoint x="530" y="5940" as="sourcePoint" />
            <mxPoint x="580" y="5890" as="targetPoint" />
          </mxGeometry>
        </mxCell>
        <mxCell id="dl5P8ZBCiNwqx4PGUhv4-19" value="" style="sketch=0;outlineConnect=0;fontColor=#232F3E;gradientColor=none;fillColor=#232F3D;strokeColor=none;dashed=0;verticalLabelPosition=bottom;verticalAlign=top;align=center;html=1;fontSize=12;fontStyle=0;aspect=fixed;pointerEvents=1;shape=mxgraph.aws4.user;" parent="1" vertex="1">
          <mxGeometry x="760" y="5890" width="78" height="78" as="geometry" />
        </mxCell>
        <mxCell id="dl5P8ZBCiNwqx4PGUhv4-20" value="" style="endArrow=classic;html=1;rounded=0;" parent="1" source="dl5P8ZBCiNwqx4PGUhv4-19" edge="1">
          <mxGeometry width="50" height="50" relative="1" as="geometry">
            <mxPoint x="530" y="5940" as="sourcePoint" />
            <mxPoint x="550" y="5930" as="targetPoint" />
          </mxGeometry>
        </mxCell>
        <mxCell id="dl5P8ZBCiNwqx4PGUhv4-21" value="Sagemaker" style="rounded=0;whiteSpace=wrap;html=1;" parent="1" vertex="1">
          <mxGeometry x="417.17" y="6080" width="120" height="60" as="geometry" />
        </mxCell>
        <mxCell id="dl5P8ZBCiNwqx4PGUhv4-22" value="Notebook" style="rounded=0;whiteSpace=wrap;html=1;" parent="1" vertex="1">
          <mxGeometry x="193" y="6160" width="120" height="40" as="geometry" />
        </mxCell>
        <mxCell id="dl5P8ZBCiNwqx4PGUhv4-23" value="Canvas" style="rounded=0;whiteSpace=wrap;html=1;" parent="1" vertex="1">
          <mxGeometry x="657.4300000000001" y="6160" width="120" height="40" as="geometry" />
        </mxCell>
        <mxCell id="dl5P8ZBCiNwqx4PGUhv4-24" value="" style="verticalLabelPosition=bottom;html=1;verticalAlign=top;align=center;strokeColor=none;fillColor=#00BEF2;shape=mxgraph.azure.virtual_machine;" parent="1" vertex="1">
          <mxGeometry x="177.5" y="6670" width="92.5" height="80" as="geometry" />
        </mxCell>
        <mxCell id="dl5P8ZBCiNwqx4PGUhv4-25" value="Linux + Python + ML Library&amp;nbsp;" style="text;html=1;strokeColor=none;fillColor=none;align=center;verticalAlign=middle;whiteSpace=wrap;rounded=0;" parent="1" vertex="1">
          <mxGeometry x="264" y="6695" width="60" height="30" as="geometry" />
        </mxCell>
        <mxCell id="dl5P8ZBCiNwqx4PGUhv4-26" value="Text" style="text;html=1;strokeColor=none;fillColor=none;align=center;verticalAlign=middle;whiteSpace=wrap;rounded=0;" parent="1" vertex="1">
          <mxGeometry x="175" y="6760" width="60" height="30" as="geometry" />
        </mxCell>
        <mxCell id="dl5P8ZBCiNwqx4PGUhv4-27" value="" style="verticalLabelPosition=bottom;html=1;verticalAlign=top;align=center;strokeColor=none;fillColor=#00BEF2;shape=mxgraph.azure.virtual_machine;" parent="1" vertex="1">
          <mxGeometry x="818" y="6660" width="92.5" height="80" as="geometry" />
        </mxCell>
        <mxCell id="dl5P8ZBCiNwqx4PGUhv4-28" value="" style="shape=image;html=1;verticalAlign=top;verticalLabelPosition=bottom;labelBackgroundColor=#ffffff;imageAspect=0;aspect=fixed;image=https://cdn4.iconfinder.com/data/icons/multimedia-flat-19/32/Hardisk-128.png" parent="1" vertex="1">
          <mxGeometry x="800" y="6785" width="83" height="83" as="geometry" />
        </mxCell>
        <mxCell id="dl5P8ZBCiNwqx4PGUhv4-29" value="" style="image;aspect=fixed;html=1;points=[];align=center;fontSize=12;image=img/lib/azure2/compute/Image_Definitions.svg;" parent="1" vertex="1">
          <mxGeometry x="333.25" y="6760" width="66" height="64" as="geometry" />
        </mxCell>
        <mxCell id="dl5P8ZBCiNwqx4PGUhv4-30" value="Gdrive" style="rounded=1;whiteSpace=wrap;html=1;" parent="1" vertex="1">
          <mxGeometry x="475.83" y="6590" width="120" height="60" as="geometry" />
        </mxCell>
        <mxCell id="dl5P8ZBCiNwqx4PGUhv4-31" value="" style="endArrow=classic;html=1;rounded=0;" parent="1" source="dl5P8ZBCiNwqx4PGUhv4-29" edge="1">
          <mxGeometry width="50" height="50" relative="1" as="geometry">
            <mxPoint x="530" y="6930" as="sourcePoint" />
            <mxPoint x="520" y="6660" as="targetPoint" />
          </mxGeometry>
        </mxCell>
        <mxCell id="dl5P8ZBCiNwqx4PGUhv4-32" value="30 GB" style="text;html=1;strokeColor=none;fillColor=none;align=center;verticalAlign=middle;whiteSpace=wrap;rounded=0;" parent="1" vertex="1">
          <mxGeometry x="331.4" y="6824" width="60" height="30" as="geometry" />
        </mxCell>
        <mxCell id="dl5P8ZBCiNwqx4PGUhv4-33" value="Kernal" style="ellipse;whiteSpace=wrap;html=1;aspect=fixed;" parent="1" vertex="1">
          <mxGeometry x="250" y="7034" width="46" height="46" as="geometry" />
        </mxCell>
        <mxCell id="dl5P8ZBCiNwqx4PGUhv4-34" value="1 Mb or 10 MB" style="text;html=1;strokeColor=none;fillColor=none;align=center;verticalAlign=middle;whiteSpace=wrap;rounded=0;" parent="1" vertex="1">
          <mxGeometry x="421.75" y="7140" width="60" height="30" as="geometry" />
        </mxCell>
        <mxCell id="dl5P8ZBCiNwqx4PGUhv4-35" value="" style="ellipse;whiteSpace=wrap;html=1;aspect=fixed;fillColor=none;" parent="1" vertex="1">
          <mxGeometry x="230" y="7017" width="80" height="80" as="geometry" />
        </mxCell>
        <mxCell id="dl5P8ZBCiNwqx4PGUhv4-36" value="" style="ellipse;whiteSpace=wrap;html=1;aspect=fixed;fillColor=none;" parent="1" vertex="1">
          <mxGeometry x="216.5" y="7000" width="110" height="110" as="geometry" />
        </mxCell>
        <mxCell id="dl5P8ZBCiNwqx4PGUhv4-37" value="" style="ellipse;whiteSpace=wrap;html=1;aspect=fixed;fillColor=none;" parent="1" vertex="1">
          <mxGeometry x="196" y="6987" width="143" height="143" as="geometry" />
        </mxCell>
        <mxCell id="dl5P8ZBCiNwqx4PGUhv4-38" value="" style="image;sketch=0;aspect=fixed;html=1;points=[];align=center;fontSize=12;image=img/lib/mscae/Docker.svg;" parent="1" vertex="1">
          <mxGeometry x="454.25" y="7034" width="68.29" height="56" as="geometry" />
        </mxCell>
        <mxCell id="dl5P8ZBCiNwqx4PGUhv4-39" value="" style="ellipse;whiteSpace=wrap;html=1;aspect=fixed;fillColor=none;" parent="1" vertex="1">
          <mxGeometry x="627.2" y="7034" width="40" height="40" as="geometry" />
        </mxCell>
        <mxCell id="dl5P8ZBCiNwqx4PGUhv4-40" value="" style="ellipse;whiteSpace=wrap;html=1;aspect=fixed;fillColor=none;" parent="1" vertex="1">
          <mxGeometry x="612.8" y="7020.400000000001" width="67.2" height="67.2" as="geometry" />
        </mxCell>
        <mxCell id="dl5P8ZBCiNwqx4PGUhv4-41" value="Docker Image" style="text;html=1;strokeColor=none;fillColor=none;align=center;verticalAlign=middle;whiteSpace=wrap;rounded=0;fontStyle=1;fontSize=16;" parent="1" vertex="1">
          <mxGeometry x="593.84" y="7087.6" width="119.76" height="30" as="geometry" />
        </mxCell>
        <mxCell id="dl5P8ZBCiNwqx4PGUhv4-42" value="Tiny OS&amp;nbsp;&lt;br&gt;Kernal + Some basic App" style="text;html=1;strokeColor=none;fillColor=none;align=center;verticalAlign=middle;whiteSpace=wrap;rounded=0;" parent="1" vertex="1">
          <mxGeometry x="585" y="7117.6" width="145" height="30" as="geometry" />
        </mxCell>
        <mxCell id="dl5P8ZBCiNwqx4PGUhv4-43" value="" style="rounded=0;whiteSpace=wrap;html=1;" parent="1" vertex="1">
          <mxGeometry x="755" y="6910" width="225" height="60" as="geometry" />
        </mxCell>
        <mxCell id="dl5P8ZBCiNwqx4PGUhv4-44" value="Docker Hub" style="text;html=1;strokeColor=none;fillColor=none;align=center;verticalAlign=middle;whiteSpace=wrap;rounded=0;fontStyle=1;fontSize=16;" parent="1" vertex="1">
          <mxGeometry x="790.74" y="6880" width="119.76" height="30" as="geometry" />
        </mxCell>
        <mxCell id="dl5P8ZBCiNwqx4PGUhv4-45" value="" style="ellipse;whiteSpace=wrap;html=1;aspect=fixed;fillColor=#fff2cc;fontStyle=1;strokeColor=#d6b656;" parent="1" vertex="1">
          <mxGeometry x="782.55" y="6918.83" width="27.45" height="27.45" as="geometry" />
        </mxCell>
        <mxCell id="dl5P8ZBCiNwqx4PGUhv4-46" value="" style="ellipse;whiteSpace=wrap;html=1;aspect=fixed;fillColor=#fff2cc;fontStyle=1;strokeColor=#d6b656;" parent="1" vertex="1">
          <mxGeometry x="910.5" y="6918.83" width="27.45" height="27.45" as="geometry" />
        </mxCell>
        <mxCell id="dl5P8ZBCiNwqx4PGUhv4-47" value="" style="ellipse;whiteSpace=wrap;html=1;aspect=fixed;fillColor=#fff2cc;fontStyle=1;strokeColor=#d6b656;" parent="1" vertex="1">
          <mxGeometry x="870" y="6918.83" width="27.45" height="27.45" as="geometry" />
        </mxCell>
        <mxCell id="dl5P8ZBCiNwqx4PGUhv4-48" value="" style="ellipse;whiteSpace=wrap;html=1;aspect=fixed;fillColor=#fff2cc;fontStyle=1;strokeColor=#d6b656;" parent="1" vertex="1">
          <mxGeometry x="827" y="6918.83" width="27.45" height="27.45" as="geometry" />
        </mxCell>
        <mxCell id="dl5P8ZBCiNwqx4PGUhv4-49" value="" style="rounded=0;whiteSpace=wrap;html=1;" parent="1" vertex="1">
          <mxGeometry x="749.75" y="7010" width="250.25" height="160" as="geometry" />
        </mxCell>
        <mxCell id="dl5P8ZBCiNwqx4PGUhv4-50" value="" style="endArrow=classic;startArrow=classic;html=1;rounded=0;entryX=0.199;entryY=1.073;entryDx=0;entryDy=0;entryPerimeter=0;" parent="1" target="dl5P8ZBCiNwqx4PGUhv4-43" edge="1">
          <mxGeometry width="50" height="50" relative="1" as="geometry">
            <mxPoint x="800" y="7010" as="sourcePoint" />
            <mxPoint x="850" y="6960" as="targetPoint" />
          </mxGeometry>
        </mxCell>
        <mxCell id="dl5P8ZBCiNwqx4PGUhv4-51" value="" style="ellipse;whiteSpace=wrap;html=1;aspect=fixed;fillColor=#fff2cc;fontStyle=1;strokeColor=#d6b656;" parent="1" vertex="1">
          <mxGeometry x="765" y="7020.4" width="27.45" height="27.45" as="geometry" />
        </mxCell>
        <mxCell id="dl5P8ZBCiNwqx4PGUhv4-52" value="" style="image;aspect=fixed;perimeter=ellipsePerimeter;html=1;align=center;shadow=0;dashed=0;spacingTop=3;image=img/lib/active_directory/cd_dvd.svg;" parent="1" vertex="1">
          <mxGeometry x="198" y="6880" width="50" height="50" as="geometry" />
        </mxCell>
        <mxCell id="dl5P8ZBCiNwqx4PGUhv4-53" value="" style="editableCssRules=.*;html=1;shape=image;verticalLabelPosition=bottom;labelBackgroundColor=#ffffff;verticalAlign=top;aspect=fixed;imageAspect=0;image=data:image/svg+xml,PHN2ZyB4bWxucz0iaHR0cDovL3d3dy53My5vcmcvMjAwMC9zdmciIHhtbG5zOnY9Imh0dHBzOi8vdmVjdGEuaW8vbmFubyIgd2lkdGg9IjE3IiBoZWlnaHQ9IjE1IiB2aWV3Qm94PSIwIDAgMTcgMTUiPiYjeGE7CTxzdHlsZSB0eXBlPSJ0ZXh0L2NzcyI+JiN4YTsJLnN0MHtmaWxsOiM0Mjg1ZjQ7fSYjeGE7CTwvc3R5bGU+JiN4YTsJPHBhdGggY2xhc3M9InN0MCIgZD0iTTIgN2gxNEw5IDB6bTcuNSAySDZ2NmgxLjV2LTJoMmExLjU0IDEuNTQgMCAwIDAgMS41LTEuNXYtMUExLjU0IDEuNTQgMCAwIDAgOS41IDl6bTAgMi41aC0ydi0xaDJ6bS00LjUtMVY5SDEuNUExLjU0IDEuNTQgMCAwIDAgMCAxMC41djNBMS41NCAxLjU0IDAgMCAwIDEuNSAxNUg1di0xLjVIMS41di0zek0xNS41IDl2NC41aC0yVjlIMTJ2NC41YTEuNTQgMS41NCAwIDAgMCAxLjUgMS41aDJhMS41NCAxLjU0IDAgMCAwIDEuNS0xLjVWOXoiLz4mI3hhOzwvc3ZnPg==;" parent="1" vertex="1">
          <mxGeometry x="761.73" y="7117.6" width="34" height="30" as="geometry" />
        </mxCell>
        <mxCell id="dl5P8ZBCiNwqx4PGUhv4-54" value="" style="sketch=0;outlineConnect=0;fontColor=#232F3E;gradientColor=none;fillColor=#7AA116;strokeColor=none;dashed=0;verticalLabelPosition=bottom;verticalAlign=top;align=center;html=1;fontSize=12;fontStyle=0;aspect=fixed;pointerEvents=1;shape=mxgraph.aws4.coffee_pot;" parent="1" vertex="1">
          <mxGeometry x="806.5" y="7117.6" width="40" height="40" as="geometry" />
        </mxCell>
        <mxCell id="dl5P8ZBCiNwqx4PGUhv4-55" value="" style="image;aspect=fixed;html=1;points=[];align=center;fontSize=12;image=img/lib/azure2/compute/Disks.svg;" parent="1" vertex="1">
          <mxGeometry x="863.73" y="7118.3" width="40" height="39.3" as="geometry" />
        </mxCell>
        <mxCell id="dl5P8ZBCiNwqx4PGUhv4-56" value="" style="rounded=0;whiteSpace=wrap;html=1;" parent="1" vertex="1">
          <mxGeometry x="750.8" y="7050" width="249.2" height="60" as="geometry" />
        </mxCell>
        <mxCell id="dl5P8ZBCiNwqx4PGUhv4-57" value="&amp;lt;/&amp;gt;" style="rounded=1;arcSize=5;fillColor=#0065FF;strokeColor=none;fontColor=#ffffff;align=center;verticalAlign=middle;whiteSpace=wrap;fontSize=10;fontStyle=1;html=1;sketch=0;" parent="1" vertex="1">
          <mxGeometry x="760.75" y="7063.6" width="24" height="24" as="geometry" />
        </mxCell>
        <mxCell id="dl5P8ZBCiNwqx4PGUhv4-58" value="&amp;lt;/&amp;gt;" style="rounded=1;arcSize=5;fillColor=#0065FF;strokeColor=none;fontColor=#ffffff;align=center;verticalAlign=middle;whiteSpace=wrap;fontSize=10;fontStyle=1;html=1;sketch=0;" parent="1" vertex="1">
          <mxGeometry x="794" y="7063.6" width="24" height="24" as="geometry" />
        </mxCell>
        <mxCell id="dl5P8ZBCiNwqx4PGUhv4-59" value="&amp;lt;/&amp;gt;" style="rounded=1;arcSize=5;fillColor=#0065FF;strokeColor=none;fontColor=#ffffff;align=center;verticalAlign=middle;whiteSpace=wrap;fontSize=10;fontStyle=1;html=1;sketch=0;" parent="1" vertex="1">
          <mxGeometry x="859" y="7063.6" width="24" height="24" as="geometry" />
        </mxCell>
        <mxCell id="dl5P8ZBCiNwqx4PGUhv4-60" value="&amp;lt;/&amp;gt;" style="rounded=1;arcSize=5;fillColor=#0065FF;strokeColor=none;fontColor=#ffffff;align=center;verticalAlign=middle;whiteSpace=wrap;fontSize=10;fontStyle=1;html=1;sketch=0;" parent="1" vertex="1">
          <mxGeometry x="826.5" y="7063.6" width="24" height="24" as="geometry" />
        </mxCell>
        <mxCell id="dl5P8ZBCiNwqx4PGUhv4-62" value="" style="ellipse;whiteSpace=wrap;html=1;aspect=fixed;fillColor=#dae8fc;fontStyle=1;strokeColor=#6c8ebf;" parent="1" vertex="1">
          <mxGeometry x="1016.25" y="7060.15" width="27.45" height="27.45" as="geometry" />
        </mxCell>
        <mxCell id="dl5P8ZBCiNwqx4PGUhv4-63" value="" style="endArrow=classic;html=1;rounded=0;entryX=0;entryY=1;entryDx=0;entryDy=0;" parent="1" target="dl5P8ZBCiNwqx4PGUhv4-62" edge="1">
          <mxGeometry width="50" height="50" relative="1" as="geometry">
            <mxPoint x="883" y="7080" as="sourcePoint" />
            <mxPoint x="933" y="7030" as="targetPoint" />
          </mxGeometry>
        </mxCell>
        <mxCell id="dl5P8ZBCiNwqx4PGUhv4-64" value="" style="ellipse;whiteSpace=wrap;html=1;aspect=fixed;fillColor=#dae8fc;fontStyle=1;strokeColor=#6c8ebf;" parent="1" vertex="1">
          <mxGeometry x="944.53" y="6918.83" width="27.45" height="27.45" as="geometry" />
        </mxCell>
        <mxCell id="QS20dlLHERjsrv4Q2pBw-1" value="" style="endArrow=classic;html=1;rounded=0;" edge="1" parent="1">
          <mxGeometry width="50" height="50" relative="1" as="geometry">
            <mxPoint x="370" y="5760" as="sourcePoint" />
            <mxPoint x="650" y="5760" as="targetPoint" />
          </mxGeometry>
        </mxCell>
        <mxCell id="QS20dlLHERjsrv4Q2pBw-2" value="Amazon DynamoDB" style="sketch=0;outlineConnect=0;fontColor=#232F3E;gradientColor=none;strokeColor=#ffffff;fillColor=#232F3E;dashed=0;verticalLabelPosition=middle;verticalAlign=bottom;align=center;html=1;whiteSpace=wrap;fontSize=10;fontStyle=1;spacing=3;shape=mxgraph.aws4.productIcon;prIcon=mxgraph.aws4.dynamodb;" vertex="1" parent="1">
          <mxGeometry x="530.25" y="7320" width="50" height="80" as="geometry" />
        </mxCell>
        <mxCell id="QS20dlLHERjsrv4Q2pBw-3" value="" style="shape=table;startSize=0;container=1;collapsible=0;childLayout=tableLayout;fontSize=16;" vertex="1" parent="1">
          <mxGeometry x="450" y="7420" width="370" height="120" as="geometry" />
        </mxCell>
        <mxCell id="QS20dlLHERjsrv4Q2pBw-4" value="" style="shape=tableRow;horizontal=0;startSize=0;swimlaneHead=0;swimlaneBody=0;strokeColor=inherit;top=0;left=0;bottom=0;right=0;collapsible=0;dropTarget=0;fillColor=none;points=[[0,0.5],[1,0.5]];portConstraint=eastwest;fontSize=16;" vertex="1" parent="QS20dlLHERjsrv4Q2pBw-3">
          <mxGeometry width="370" height="40" as="geometry" />
        </mxCell>
        <mxCell id="QS20dlLHERjsrv4Q2pBw-5" value="Fule" style="shape=partialRectangle;html=1;whiteSpace=wrap;connectable=0;strokeColor=inherit;overflow=hidden;fillColor=none;top=0;left=0;bottom=0;right=0;pointerEvents=1;fontSize=16;" vertex="1" parent="QS20dlLHERjsrv4Q2pBw-4">
          <mxGeometry width="123" height="40" as="geometry">
            <mxRectangle width="123" height="40" as="alternateBounds" />
          </mxGeometry>
        </mxCell>
        <mxCell id="QS20dlLHERjsrv4Q2pBw-6" value="TP" style="shape=partialRectangle;html=1;whiteSpace=wrap;connectable=0;strokeColor=inherit;overflow=hidden;fillColor=none;top=0;left=0;bottom=0;right=0;pointerEvents=1;fontSize=16;" vertex="1" parent="QS20dlLHERjsrv4Q2pBw-4">
          <mxGeometry x="123" width="124" height="40" as="geometry">
            <mxRectangle width="124" height="40" as="alternateBounds" />
          </mxGeometry>
        </mxCell>
        <mxCell id="QS20dlLHERjsrv4Q2pBw-7" value="Pollution" style="shape=partialRectangle;html=1;whiteSpace=wrap;connectable=0;strokeColor=inherit;overflow=hidden;fillColor=none;top=0;left=0;bottom=0;right=0;pointerEvents=1;fontSize=16;" vertex="1" parent="QS20dlLHERjsrv4Q2pBw-4">
          <mxGeometry x="247" width="123" height="40" as="geometry">
            <mxRectangle width="123" height="40" as="alternateBounds" />
          </mxGeometry>
        </mxCell>
        <mxCell id="QS20dlLHERjsrv4Q2pBw-8" value="" style="shape=tableRow;horizontal=0;startSize=0;swimlaneHead=0;swimlaneBody=0;strokeColor=inherit;top=0;left=0;bottom=0;right=0;collapsible=0;dropTarget=0;fillColor=none;points=[[0,0.5],[1,0.5]];portConstraint=eastwest;fontSize=16;" vertex="1" parent="QS20dlLHERjsrv4Q2pBw-3">
          <mxGeometry y="40" width="370" height="40" as="geometry" />
        </mxCell>
        <mxCell id="QS20dlLHERjsrv4Q2pBw-9" value="Int" style="shape=partialRectangle;html=1;whiteSpace=wrap;connectable=0;strokeColor=inherit;overflow=hidden;fillColor=none;top=0;left=0;bottom=0;right=0;pointerEvents=1;fontSize=16;" vertex="1" parent="QS20dlLHERjsrv4Q2pBw-8">
          <mxGeometry width="123" height="40" as="geometry">
            <mxRectangle width="123" height="40" as="alternateBounds" />
          </mxGeometry>
        </mxCell>
        <mxCell id="QS20dlLHERjsrv4Q2pBw-10" value="Char" style="shape=partialRectangle;html=1;whiteSpace=wrap;connectable=0;strokeColor=inherit;overflow=hidden;fillColor=none;top=0;left=0;bottom=0;right=0;pointerEvents=1;fontSize=16;" vertex="1" parent="QS20dlLHERjsrv4Q2pBw-8">
          <mxGeometry x="123" width="124" height="40" as="geometry">
            <mxRectangle width="124" height="40" as="alternateBounds" />
          </mxGeometry>
        </mxCell>
        <mxCell id="QS20dlLHERjsrv4Q2pBw-11" value="" style="shape=partialRectangle;html=1;whiteSpace=wrap;connectable=0;strokeColor=inherit;overflow=hidden;fillColor=none;top=0;left=0;bottom=0;right=0;pointerEvents=1;fontSize=16;" vertex="1" parent="QS20dlLHERjsrv4Q2pBw-8">
          <mxGeometry x="247" width="123" height="40" as="geometry">
            <mxRectangle width="123" height="40" as="alternateBounds" />
          </mxGeometry>
        </mxCell>
        <mxCell id="QS20dlLHERjsrv4Q2pBw-12" value="" style="shape=tableRow;horizontal=0;startSize=0;swimlaneHead=0;swimlaneBody=0;strokeColor=inherit;top=0;left=0;bottom=0;right=0;collapsible=0;dropTarget=0;fillColor=none;points=[[0,0.5],[1,0.5]];portConstraint=eastwest;fontSize=16;" vertex="1" parent="QS20dlLHERjsrv4Q2pBw-3">
          <mxGeometry y="80" width="370" height="40" as="geometry" />
        </mxCell>
        <mxCell id="QS20dlLHERjsrv4Q2pBw-13" value="" style="shape=partialRectangle;html=1;whiteSpace=wrap;connectable=0;strokeColor=inherit;overflow=hidden;fillColor=none;top=0;left=0;bottom=0;right=0;pointerEvents=1;fontSize=16;" vertex="1" parent="QS20dlLHERjsrv4Q2pBw-12">
          <mxGeometry width="123" height="40" as="geometry">
            <mxRectangle width="123" height="40" as="alternateBounds" />
          </mxGeometry>
        </mxCell>
        <mxCell id="QS20dlLHERjsrv4Q2pBw-14" value="" style="shape=partialRectangle;html=1;whiteSpace=wrap;connectable=0;strokeColor=inherit;overflow=hidden;fillColor=none;top=0;left=0;bottom=0;right=0;pointerEvents=1;fontSize=16;" vertex="1" parent="QS20dlLHERjsrv4Q2pBw-12">
          <mxGeometry x="123" width="124" height="40" as="geometry">
            <mxRectangle width="124" height="40" as="alternateBounds" />
          </mxGeometry>
        </mxCell>
        <mxCell id="QS20dlLHERjsrv4Q2pBw-15" value="" style="shape=partialRectangle;html=1;whiteSpace=wrap;connectable=0;strokeColor=inherit;overflow=hidden;fillColor=none;top=0;left=0;bottom=0;right=0;pointerEvents=1;fontSize=16;" vertex="1" parent="QS20dlLHERjsrv4Q2pBw-12">
          <mxGeometry x="247" width="123" height="40" as="geometry">
            <mxRectangle width="123" height="40" as="alternateBounds" />
          </mxGeometry>
        </mxCell>
        <mxCell id="QS20dlLHERjsrv4Q2pBw-16" value="Schema" style="text;html=1;strokeColor=none;fillColor=none;align=center;verticalAlign=middle;whiteSpace=wrap;rounded=0;fontStyle=1;fontSize=16;" vertex="1" parent="1">
          <mxGeometry x="843.73" y="7345" width="60" height="30" as="geometry" />
        </mxCell>
        <mxCell id="QS20dlLHERjsrv4Q2pBw-17" value="SQL&amp;nbsp;" style="text;html=1;strokeColor=none;fillColor=none;align=center;verticalAlign=middle;whiteSpace=wrap;rounded=0;fontStyle=1;fontSize=16;" vertex="1" parent="1">
          <mxGeometry x="834.25" y="7400" width="60" height="30" as="geometry" />
        </mxCell>
        <mxCell id="QS20dlLHERjsrv4Q2pBw-18" value="" style="html=1;outlineConnect=0;whiteSpace=wrap;fillColor=#F5DEAA;shape=mxgraph.archimate3.application;appType=course;archiType=rounded;" vertex="1" parent="1">
          <mxGeometry x="360" y="7680" width="150" height="75" as="geometry" />
        </mxCell>
        <mxCell id="QS20dlLHERjsrv4Q2pBw-19" value="Fule" style="text;html=1;strokeColor=none;fillColor=none;align=center;verticalAlign=middle;whiteSpace=wrap;rounded=0;fontStyle=1" vertex="1" parent="1">
          <mxGeometry x="516.09" y="7690" width="60" height="30" as="geometry" />
        </mxCell>
        <mxCell id="QS20dlLHERjsrv4Q2pBw-20" value="TyrePressure" style="text;html=1;strokeColor=none;fillColor=none;align=center;verticalAlign=middle;whiteSpace=wrap;rounded=0;fontStyle=1" vertex="1" parent="1">
          <mxGeometry x="538" y="7720" width="60" height="30" as="geometry" />
        </mxCell>
        <mxCell id="QS20dlLHERjsrv4Q2pBw-21" value="Pollution" style="text;html=1;strokeColor=none;fillColor=none;align=center;verticalAlign=middle;whiteSpace=wrap;rounded=0;fontStyle=1" vertex="1" parent="1">
          <mxGeometry x="538" y="7750" width="60" height="30" as="geometry" />
        </mxCell>
        <mxCell id="QS20dlLHERjsrv4Q2pBw-22" value="Camera" style="sketch=0;outlineConnect=0;fontColor=#232F3E;gradientColor=none;strokeColor=#232F3E;fillColor=#ffffff;dashed=0;verticalLabelPosition=bottom;verticalAlign=top;align=center;html=1;fontSize=12;fontStyle=0;aspect=fixed;shape=mxgraph.aws4.resourceIcon;resIcon=mxgraph.aws4.camera;" vertex="1" parent="1">
          <mxGeometry x="370" y="7687.5" width="60" height="60" as="geometry" />
        </mxCell>
        <mxCell id="QS20dlLHERjsrv4Q2pBw-23" value="" style="endArrow=classic;html=1;rounded=0;entryX=0.524;entryY=1.075;entryDx=0;entryDy=0;entryPerimeter=0;" edge="1" parent="1" source="QS20dlLHERjsrv4Q2pBw-18" target="QS20dlLHERjsrv4Q2pBw-12">
          <mxGeometry width="50" height="50" relative="1" as="geometry">
            <mxPoint x="680" y="7710" as="sourcePoint" />
            <mxPoint x="730" y="7660" as="targetPoint" />
          </mxGeometry>
        </mxCell>
        <mxCell id="QS20dlLHERjsrv4Q2pBw-24" value="" style="fillColor=#c0f5a9;dashed=0;outlineConnect=0;strokeWidth=2;html=1;align=center;fontSize=8;verticalLabelPosition=bottom;verticalAlign=top;shape=mxgraph.eip.event_driven_consumer;" vertex="1" parent="1">
          <mxGeometry x="840.75" y="7687.5" width="150" height="90" as="geometry" />
        </mxCell>
        <mxCell id="QS20dlLHERjsrv4Q2pBw-25" value="Camera" style="sketch=0;outlineConnect=0;fontColor=#232F3E;gradientColor=none;strokeColor=#232F3E;fillColor=#ffffff;dashed=0;verticalLabelPosition=bottom;verticalAlign=top;align=center;html=1;fontSize=12;fontStyle=0;aspect=fixed;shape=mxgraph.aws4.resourceIcon;resIcon=mxgraph.aws4.camera;" vertex="1" parent="1">
          <mxGeometry x="854.45" y="7687.5" width="60" height="60" as="geometry" />
        </mxCell>
        <mxCell id="QS20dlLHERjsrv4Q2pBw-26" value="temp" style="text;html=1;strokeColor=none;fillColor=none;align=center;verticalAlign=middle;whiteSpace=wrap;rounded=0;fontStyle=1" vertex="1" parent="1">
          <mxGeometry x="1010" y="7690" width="60" height="30" as="geometry" />
        </mxCell>
        <mxCell id="QS20dlLHERjsrv4Q2pBw-27" value="Motor" style="text;html=1;strokeColor=none;fillColor=none;align=center;verticalAlign=middle;whiteSpace=wrap;rounded=0;fontStyle=1" vertex="1" parent="1">
          <mxGeometry x="1010" y="7725" width="60" height="30" as="geometry" />
        </mxCell>
        <mxCell id="QS20dlLHERjsrv4Q2pBw-28" value="temp" style="text;html=1;strokeColor=none;fillColor=none;align=center;verticalAlign=middle;whiteSpace=wrap;rounded=0;fontStyle=1" vertex="1" parent="1">
          <mxGeometry x="1030" y="7710" width="60" height="30" as="geometry" />
        </mxCell>
        <mxCell id="QS20dlLHERjsrv4Q2pBw-29" value="" style="shape=mxgraph.signs.tech.camera_1;html=1;pointerEvents=1;fillColor=#000000;strokeColor=none;verticalLabelPosition=bottom;verticalAlign=top;align=center;" vertex="1" parent="1">
          <mxGeometry x="1092" y="7456" width="98" height="84" as="geometry" />
        </mxCell>
        <mxCell id="QS20dlLHERjsrv4Q2pBw-30" value="Camera" style="sketch=0;outlineConnect=0;fontColor=#232F3E;gradientColor=none;strokeColor=#232F3E;fillColor=#ffffff;dashed=0;verticalLabelPosition=bottom;verticalAlign=top;align=center;html=1;fontSize=12;fontStyle=0;aspect=fixed;shape=mxgraph.aws4.resourceIcon;resIcon=mxgraph.aws4.camera;" vertex="1" parent="1">
          <mxGeometry x="1092" y="7420" width="60" height="60" as="geometry" />
        </mxCell>
        <mxCell id="QS20dlLHERjsrv4Q2pBw-31" value="Informatica" style="text;html=1;strokeColor=none;fillColor=none;align=center;verticalAlign=middle;whiteSpace=wrap;rounded=0;fontStyle=1;fontSize=16;" vertex="1" parent="1">
          <mxGeometry x="115" y="7315" width="60" height="30" as="geometry" />
        </mxCell>
        <mxCell id="QS20dlLHERjsrv4Q2pBw-32" value="Text" style="text;html=1;strokeColor=none;fillColor=none;align=center;verticalAlign=middle;whiteSpace=wrap;rounded=0;" vertex="1" parent="1">
          <mxGeometry x="670" y="7725" width="60" height="30" as="geometry" />
        </mxCell>
        <mxCell id="QS20dlLHERjsrv4Q2pBw-33" value="" style="shape=table;startSize=0;container=1;collapsible=0;childLayout=tableLayout;fontSize=16;" vertex="1" parent="1">
          <mxGeometry y="7370" width="370" height="100" as="geometry" />
        </mxCell>
        <mxCell id="QS20dlLHERjsrv4Q2pBw-34" value="" style="shape=tableRow;horizontal=0;startSize=0;swimlaneHead=0;swimlaneBody=0;strokeColor=inherit;top=0;left=0;bottom=0;right=0;collapsible=0;dropTarget=0;fillColor=none;points=[[0,0.5],[1,0.5]];portConstraint=eastwest;fontSize=16;" vertex="1" parent="QS20dlLHERjsrv4Q2pBw-33">
          <mxGeometry width="370" height="20" as="geometry" />
        </mxCell>
        <mxCell id="QS20dlLHERjsrv4Q2pBw-35" value="ProfileName" style="shape=partialRectangle;html=1;whiteSpace=wrap;connectable=0;strokeColor=inherit;overflow=hidden;fillColor=none;top=0;left=0;bottom=0;right=0;pointerEvents=1;fontSize=16;" vertex="1" parent="QS20dlLHERjsrv4Q2pBw-34">
          <mxGeometry width="123" height="20" as="geometry">
            <mxRectangle width="123" height="20" as="alternateBounds" />
          </mxGeometry>
        </mxCell>
        <mxCell id="QS20dlLHERjsrv4Q2pBw-36" value="Friends" style="shape=partialRectangle;html=1;whiteSpace=wrap;connectable=0;strokeColor=inherit;overflow=hidden;fillColor=none;top=0;left=0;bottom=0;right=0;pointerEvents=1;fontSize=16;" vertex="1" parent="QS20dlLHERjsrv4Q2pBw-34">
          <mxGeometry x="123" width="124" height="20" as="geometry">
            <mxRectangle width="124" height="20" as="alternateBounds" />
          </mxGeometry>
        </mxCell>
        <mxCell id="QS20dlLHERjsrv4Q2pBw-37" value="Post" style="shape=partialRectangle;html=1;whiteSpace=wrap;connectable=0;strokeColor=inherit;overflow=hidden;fillColor=none;top=0;left=0;bottom=0;right=0;pointerEvents=1;fontSize=16;" vertex="1" parent="QS20dlLHERjsrv4Q2pBw-34">
          <mxGeometry x="247" width="123" height="20" as="geometry">
            <mxRectangle width="123" height="20" as="alternateBounds" />
          </mxGeometry>
        </mxCell>
        <mxCell id="QS20dlLHERjsrv4Q2pBw-38" value="" style="shape=tableRow;horizontal=0;startSize=0;swimlaneHead=0;swimlaneBody=0;strokeColor=inherit;top=0;left=0;bottom=0;right=0;collapsible=0;dropTarget=0;fillColor=none;points=[[0,0.5],[1,0.5]];portConstraint=eastwest;fontSize=16;" vertex="1" parent="QS20dlLHERjsrv4Q2pBw-33">
          <mxGeometry y="20" width="370" height="40" as="geometry" />
        </mxCell>
        <mxCell id="QS20dlLHERjsrv4Q2pBw-39" value="Int" style="shape=partialRectangle;html=1;whiteSpace=wrap;connectable=0;strokeColor=inherit;overflow=hidden;fillColor=none;top=0;left=0;bottom=0;right=0;pointerEvents=1;fontSize=16;" vertex="1" parent="QS20dlLHERjsrv4Q2pBw-38">
          <mxGeometry width="123" height="40" as="geometry">
            <mxRectangle width="123" height="40" as="alternateBounds" />
          </mxGeometry>
        </mxCell>
        <mxCell id="QS20dlLHERjsrv4Q2pBw-40" value="Char" style="shape=partialRectangle;html=1;whiteSpace=wrap;connectable=0;strokeColor=inherit;overflow=hidden;fillColor=none;top=0;left=0;bottom=0;right=0;pointerEvents=1;fontSize=16;" vertex="1" parent="QS20dlLHERjsrv4Q2pBw-38">
          <mxGeometry x="123" width="124" height="40" as="geometry">
            <mxRectangle width="124" height="40" as="alternateBounds" />
          </mxGeometry>
        </mxCell>
        <mxCell id="QS20dlLHERjsrv4Q2pBw-41" value="" style="shape=partialRectangle;html=1;whiteSpace=wrap;connectable=0;strokeColor=inherit;overflow=hidden;fillColor=none;top=0;left=0;bottom=0;right=0;pointerEvents=1;fontSize=16;" vertex="1" parent="QS20dlLHERjsrv4Q2pBw-38">
          <mxGeometry x="247" width="123" height="40" as="geometry">
            <mxRectangle width="123" height="40" as="alternateBounds" />
          </mxGeometry>
        </mxCell>
        <mxCell id="QS20dlLHERjsrv4Q2pBw-42" value="" style="shape=tableRow;horizontal=0;startSize=0;swimlaneHead=0;swimlaneBody=0;strokeColor=inherit;top=0;left=0;bottom=0;right=0;collapsible=0;dropTarget=0;fillColor=none;points=[[0,0.5],[1,0.5]];portConstraint=eastwest;fontSize=16;" vertex="1" parent="QS20dlLHERjsrv4Q2pBw-33">
          <mxGeometry y="60" width="370" height="40" as="geometry" />
        </mxCell>
        <mxCell id="QS20dlLHERjsrv4Q2pBw-43" value="" style="shape=partialRectangle;html=1;whiteSpace=wrap;connectable=0;strokeColor=inherit;overflow=hidden;fillColor=none;top=0;left=0;bottom=0;right=0;pointerEvents=1;fontSize=16;" vertex="1" parent="QS20dlLHERjsrv4Q2pBw-42">
          <mxGeometry width="123" height="40" as="geometry">
            <mxRectangle width="123" height="40" as="alternateBounds" />
          </mxGeometry>
        </mxCell>
        <mxCell id="QS20dlLHERjsrv4Q2pBw-44" value="" style="shape=partialRectangle;html=1;whiteSpace=wrap;connectable=0;strokeColor=inherit;overflow=hidden;fillColor=none;top=0;left=0;bottom=0;right=0;pointerEvents=1;fontSize=16;" vertex="1" parent="QS20dlLHERjsrv4Q2pBw-42">
          <mxGeometry x="123" width="124" height="40" as="geometry">
            <mxRectangle width="124" height="40" as="alternateBounds" />
          </mxGeometry>
        </mxCell>
        <mxCell id="QS20dlLHERjsrv4Q2pBw-45" value="" style="shape=partialRectangle;html=1;whiteSpace=wrap;connectable=0;strokeColor=inherit;overflow=hidden;fillColor=none;top=0;left=0;bottom=0;right=0;pointerEvents=1;fontSize=16;" vertex="1" parent="QS20dlLHERjsrv4Q2pBw-42">
          <mxGeometry x="247" width="123" height="40" as="geometry">
            <mxRectangle width="123" height="40" as="alternateBounds" />
          </mxGeometry>
        </mxCell>
        <mxCell id="QS20dlLHERjsrv4Q2pBw-46" value="" style="shape=table;startSize=0;container=1;collapsible=0;childLayout=tableLayout;fontSize=16;" vertex="1" parent="1">
          <mxGeometry y="7510" width="370" height="100" as="geometry" />
        </mxCell>
        <mxCell id="QS20dlLHERjsrv4Q2pBw-47" value="" style="shape=tableRow;horizontal=0;startSize=0;swimlaneHead=0;swimlaneBody=0;strokeColor=inherit;top=0;left=0;bottom=0;right=0;collapsible=0;dropTarget=0;fillColor=none;points=[[0,0.5],[1,0.5]];portConstraint=eastwest;fontSize=16;" vertex="1" parent="QS20dlLHERjsrv4Q2pBw-46">
          <mxGeometry width="370" height="20" as="geometry" />
        </mxCell>
        <mxCell id="QS20dlLHERjsrv4Q2pBw-48" value="ProfileName" style="shape=partialRectangle;html=1;whiteSpace=wrap;connectable=0;strokeColor=inherit;overflow=hidden;fillColor=none;top=0;left=0;bottom=0;right=0;pointerEvents=1;fontSize=16;" vertex="1" parent="QS20dlLHERjsrv4Q2pBw-47">
          <mxGeometry width="123" height="20" as="geometry">
            <mxRectangle width="123" height="20" as="alternateBounds" />
          </mxGeometry>
        </mxCell>
        <mxCell id="QS20dlLHERjsrv4Q2pBw-49" value="Connection" style="shape=partialRectangle;html=1;whiteSpace=wrap;connectable=0;strokeColor=inherit;overflow=hidden;fillColor=none;top=0;left=0;bottom=0;right=0;pointerEvents=1;fontSize=16;" vertex="1" parent="QS20dlLHERjsrv4Q2pBw-47">
          <mxGeometry x="123" width="124" height="20" as="geometry">
            <mxRectangle width="124" height="20" as="alternateBounds" />
          </mxGeometry>
        </mxCell>
        <mxCell id="QS20dlLHERjsrv4Q2pBw-50" value="Post" style="shape=partialRectangle;html=1;whiteSpace=wrap;connectable=0;strokeColor=inherit;overflow=hidden;fillColor=none;top=0;left=0;bottom=0;right=0;pointerEvents=1;fontSize=16;" vertex="1" parent="QS20dlLHERjsrv4Q2pBw-47">
          <mxGeometry x="247" width="123" height="20" as="geometry">
            <mxRectangle width="123" height="20" as="alternateBounds" />
          </mxGeometry>
        </mxCell>
        <mxCell id="QS20dlLHERjsrv4Q2pBw-51" value="" style="shape=tableRow;horizontal=0;startSize=0;swimlaneHead=0;swimlaneBody=0;strokeColor=inherit;top=0;left=0;bottom=0;right=0;collapsible=0;dropTarget=0;fillColor=none;points=[[0,0.5],[1,0.5]];portConstraint=eastwest;fontSize=16;" vertex="1" parent="QS20dlLHERjsrv4Q2pBw-46">
          <mxGeometry y="20" width="370" height="40" as="geometry" />
        </mxCell>
        <mxCell id="QS20dlLHERjsrv4Q2pBw-52" value="Int" style="shape=partialRectangle;html=1;whiteSpace=wrap;connectable=0;strokeColor=inherit;overflow=hidden;fillColor=none;top=0;left=0;bottom=0;right=0;pointerEvents=1;fontSize=16;" vertex="1" parent="QS20dlLHERjsrv4Q2pBw-51">
          <mxGeometry width="123" height="40" as="geometry">
            <mxRectangle width="123" height="40" as="alternateBounds" />
          </mxGeometry>
        </mxCell>
        <mxCell id="QS20dlLHERjsrv4Q2pBw-53" value="Char" style="shape=partialRectangle;html=1;whiteSpace=wrap;connectable=0;strokeColor=inherit;overflow=hidden;fillColor=none;top=0;left=0;bottom=0;right=0;pointerEvents=1;fontSize=16;" vertex="1" parent="QS20dlLHERjsrv4Q2pBw-51">
          <mxGeometry x="123" width="124" height="40" as="geometry">
            <mxRectangle width="124" height="40" as="alternateBounds" />
          </mxGeometry>
        </mxCell>
        <mxCell id="QS20dlLHERjsrv4Q2pBw-54" value="" style="shape=partialRectangle;html=1;whiteSpace=wrap;connectable=0;strokeColor=inherit;overflow=hidden;fillColor=none;top=0;left=0;bottom=0;right=0;pointerEvents=1;fontSize=16;" vertex="1" parent="QS20dlLHERjsrv4Q2pBw-51">
          <mxGeometry x="247" width="123" height="40" as="geometry">
            <mxRectangle width="123" height="40" as="alternateBounds" />
          </mxGeometry>
        </mxCell>
        <mxCell id="QS20dlLHERjsrv4Q2pBw-55" value="" style="shape=tableRow;horizontal=0;startSize=0;swimlaneHead=0;swimlaneBody=0;strokeColor=inherit;top=0;left=0;bottom=0;right=0;collapsible=0;dropTarget=0;fillColor=none;points=[[0,0.5],[1,0.5]];portConstraint=eastwest;fontSize=16;" vertex="1" parent="QS20dlLHERjsrv4Q2pBw-46">
          <mxGeometry y="60" width="370" height="40" as="geometry" />
        </mxCell>
        <mxCell id="QS20dlLHERjsrv4Q2pBw-56" value="" style="shape=partialRectangle;html=1;whiteSpace=wrap;connectable=0;strokeColor=inherit;overflow=hidden;fillColor=none;top=0;left=0;bottom=0;right=0;pointerEvents=1;fontSize=16;" vertex="1" parent="QS20dlLHERjsrv4Q2pBw-55">
          <mxGeometry width="123" height="40" as="geometry">
            <mxRectangle width="123" height="40" as="alternateBounds" />
          </mxGeometry>
        </mxCell>
        <mxCell id="QS20dlLHERjsrv4Q2pBw-57" value="" style="shape=partialRectangle;html=1;whiteSpace=wrap;connectable=0;strokeColor=inherit;overflow=hidden;fillColor=none;top=0;left=0;bottom=0;right=0;pointerEvents=1;fontSize=16;" vertex="1" parent="QS20dlLHERjsrv4Q2pBw-55">
          <mxGeometry x="123" width="124" height="40" as="geometry">
            <mxRectangle width="124" height="40" as="alternateBounds" />
          </mxGeometry>
        </mxCell>
        <mxCell id="QS20dlLHERjsrv4Q2pBw-58" value="" style="shape=partialRectangle;html=1;whiteSpace=wrap;connectable=0;strokeColor=inherit;overflow=hidden;fillColor=none;top=0;left=0;bottom=0;right=0;pointerEvents=1;fontSize=16;" vertex="1" parent="QS20dlLHERjsrv4Q2pBw-55">
          <mxGeometry x="247" width="123" height="40" as="geometry">
            <mxRectangle width="123" height="40" as="alternateBounds" />
          </mxGeometry>
        </mxCell>
        <mxCell id="QS20dlLHERjsrv4Q2pBw-59" value="" style="shape=table;startSize=0;container=1;collapsible=0;childLayout=tableLayout;fontSize=16;" vertex="1" parent="1">
          <mxGeometry y="7640" width="370" height="100" as="geometry" />
        </mxCell>
        <mxCell id="QS20dlLHERjsrv4Q2pBw-60" value="" style="shape=tableRow;horizontal=0;startSize=0;swimlaneHead=0;swimlaneBody=0;strokeColor=inherit;top=0;left=0;bottom=0;right=0;collapsible=0;dropTarget=0;fillColor=none;points=[[0,0.5],[1,0.5]];portConstraint=eastwest;fontSize=16;" vertex="1" parent="QS20dlLHERjsrv4Q2pBw-59">
          <mxGeometry width="370" height="20" as="geometry" />
        </mxCell>
        <mxCell id="QS20dlLHERjsrv4Q2pBw-61" value="ProfileName" style="shape=partialRectangle;html=1;whiteSpace=wrap;connectable=0;strokeColor=inherit;overflow=hidden;fillColor=none;top=0;left=0;bottom=0;right=0;pointerEvents=1;fontSize=16;" vertex="1" parent="QS20dlLHERjsrv4Q2pBw-60">
          <mxGeometry width="123" height="20" as="geometry">
            <mxRectangle width="123" height="20" as="alternateBounds" />
          </mxGeometry>
        </mxCell>
        <mxCell id="QS20dlLHERjsrv4Q2pBw-62" value="Follower" style="shape=partialRectangle;html=1;whiteSpace=wrap;connectable=0;strokeColor=inherit;overflow=hidden;fillColor=none;top=0;left=0;bottom=0;right=0;pointerEvents=1;fontSize=16;" vertex="1" parent="QS20dlLHERjsrv4Q2pBw-60">
          <mxGeometry x="123" width="124" height="20" as="geometry">
            <mxRectangle width="124" height="20" as="alternateBounds" />
          </mxGeometry>
        </mxCell>
        <mxCell id="QS20dlLHERjsrv4Q2pBw-63" value="Post" style="shape=partialRectangle;html=1;whiteSpace=wrap;connectable=0;strokeColor=inherit;overflow=hidden;fillColor=none;top=0;left=0;bottom=0;right=0;pointerEvents=1;fontSize=16;" vertex="1" parent="QS20dlLHERjsrv4Q2pBw-60">
          <mxGeometry x="247" width="123" height="20" as="geometry">
            <mxRectangle width="123" height="20" as="alternateBounds" />
          </mxGeometry>
        </mxCell>
        <mxCell id="QS20dlLHERjsrv4Q2pBw-64" value="" style="shape=tableRow;horizontal=0;startSize=0;swimlaneHead=0;swimlaneBody=0;strokeColor=inherit;top=0;left=0;bottom=0;right=0;collapsible=0;dropTarget=0;fillColor=none;points=[[0,0.5],[1,0.5]];portConstraint=eastwest;fontSize=16;" vertex="1" parent="QS20dlLHERjsrv4Q2pBw-59">
          <mxGeometry y="20" width="370" height="40" as="geometry" />
        </mxCell>
        <mxCell id="QS20dlLHERjsrv4Q2pBw-65" value="Int" style="shape=partialRectangle;html=1;whiteSpace=wrap;connectable=0;strokeColor=inherit;overflow=hidden;fillColor=none;top=0;left=0;bottom=0;right=0;pointerEvents=1;fontSize=16;" vertex="1" parent="QS20dlLHERjsrv4Q2pBw-64">
          <mxGeometry width="123" height="40" as="geometry">
            <mxRectangle width="123" height="40" as="alternateBounds" />
          </mxGeometry>
        </mxCell>
        <mxCell id="QS20dlLHERjsrv4Q2pBw-66" value="Char" style="shape=partialRectangle;html=1;whiteSpace=wrap;connectable=0;strokeColor=inherit;overflow=hidden;fillColor=none;top=0;left=0;bottom=0;right=0;pointerEvents=1;fontSize=16;" vertex="1" parent="QS20dlLHERjsrv4Q2pBw-64">
          <mxGeometry x="123" width="124" height="40" as="geometry">
            <mxRectangle width="124" height="40" as="alternateBounds" />
          </mxGeometry>
        </mxCell>
        <mxCell id="QS20dlLHERjsrv4Q2pBw-67" value="" style="shape=partialRectangle;html=1;whiteSpace=wrap;connectable=0;strokeColor=inherit;overflow=hidden;fillColor=none;top=0;left=0;bottom=0;right=0;pointerEvents=1;fontSize=16;" vertex="1" parent="QS20dlLHERjsrv4Q2pBw-64">
          <mxGeometry x="247" width="123" height="40" as="geometry">
            <mxRectangle width="123" height="40" as="alternateBounds" />
          </mxGeometry>
        </mxCell>
        <mxCell id="QS20dlLHERjsrv4Q2pBw-68" value="" style="shape=tableRow;horizontal=0;startSize=0;swimlaneHead=0;swimlaneBody=0;strokeColor=inherit;top=0;left=0;bottom=0;right=0;collapsible=0;dropTarget=0;fillColor=none;points=[[0,0.5],[1,0.5]];portConstraint=eastwest;fontSize=16;" vertex="1" parent="QS20dlLHERjsrv4Q2pBw-59">
          <mxGeometry y="60" width="370" height="40" as="geometry" />
        </mxCell>
        <mxCell id="QS20dlLHERjsrv4Q2pBw-69" value="" style="shape=partialRectangle;html=1;whiteSpace=wrap;connectable=0;strokeColor=inherit;overflow=hidden;fillColor=none;top=0;left=0;bottom=0;right=0;pointerEvents=1;fontSize=16;" vertex="1" parent="QS20dlLHERjsrv4Q2pBw-68">
          <mxGeometry width="123" height="40" as="geometry">
            <mxRectangle width="123" height="40" as="alternateBounds" />
          </mxGeometry>
        </mxCell>
        <mxCell id="QS20dlLHERjsrv4Q2pBw-70" value="" style="shape=partialRectangle;html=1;whiteSpace=wrap;connectable=0;strokeColor=inherit;overflow=hidden;fillColor=none;top=0;left=0;bottom=0;right=0;pointerEvents=1;fontSize=16;" vertex="1" parent="QS20dlLHERjsrv4Q2pBw-68">
          <mxGeometry x="123" width="124" height="40" as="geometry">
            <mxRectangle width="124" height="40" as="alternateBounds" />
          </mxGeometry>
        </mxCell>
        <mxCell id="QS20dlLHERjsrv4Q2pBw-71" value="" style="shape=partialRectangle;html=1;whiteSpace=wrap;connectable=0;strokeColor=inherit;overflow=hidden;fillColor=none;top=0;left=0;bottom=0;right=0;pointerEvents=1;fontSize=16;" vertex="1" parent="QS20dlLHERjsrv4Q2pBw-68">
          <mxGeometry x="247" width="123" height="40" as="geometry">
            <mxRectangle width="123" height="40" as="alternateBounds" />
          </mxGeometry>
        </mxCell>
        <mxCell id="QS20dlLHERjsrv4Q2pBw-72" value="Name= &#39;John&#39;" style="text;html=1;strokeColor=none;fillColor=none;align=center;verticalAlign=middle;whiteSpace=wrap;rounded=0;fontStyle=1" vertex="1" parent="1">
          <mxGeometry x="177.5" y="7880" width="182.5" height="30" as="geometry" />
        </mxCell>
        <mxCell id="QS20dlLHERjsrv4Q2pBw-73" value="MonoDB" style="text;html=1;strokeColor=none;fillColor=none;align=center;verticalAlign=middle;whiteSpace=wrap;rounded=0;fontStyle=1;fontSize=16;" vertex="1" parent="1">
          <mxGeometry x="607.2" y="7900" width="60" height="30" as="geometry" />
        </mxCell>
        <mxCell id="QS20dlLHERjsrv4Q2pBw-74" value="DynaoDB" style="text;html=1;strokeColor=none;fillColor=none;align=center;verticalAlign=middle;whiteSpace=wrap;rounded=0;fontStyle=1;fontSize=16;" vertex="1" parent="1">
          <mxGeometry x="752.75" y="7890" width="60" height="30" as="geometry" />
        </mxCell>
        <mxCell id="QS20dlLHERjsrv4Q2pBw-75" value="DocumentDB" style="text;html=1;strokeColor=none;fillColor=none;align=center;verticalAlign=middle;whiteSpace=wrap;rounded=0;fontStyle=1;fontSize=16;" vertex="1" parent="1">
          <mxGeometry x="903.73" y="7890" width="60" height="30" as="geometry" />
        </mxCell>
        <mxCell id="QS20dlLHERjsrv4Q2pBw-76" value="CosmoDB" style="text;html=1;strokeColor=none;fillColor=none;align=center;verticalAlign=middle;whiteSpace=wrap;rounded=0;fontStyle=1;fontSize=16;" vertex="1" parent="1">
          <mxGeometry x="1040" y="7890" width="60" height="30" as="geometry" />
        </mxCell>
      </root>
    </mxGraphModel>
  </diagram>
</mxfile>
